  0
SECTION
  2
HEADER
  9
$ACADVER
  1
AC1014
  9
$ACADMAINTVER
 70
     9
  9
$DWGCODEPAGE
  3
ANSI_1252
  9
$INSBASE
 10
0.0
 20
0.0
 30
0.0
  9
$EXTMIN
 10
1.000000000000000E+20
 20
1.000000000000000E+20
 30
1.000000000000000E+20
  9
$EXTMAX
 10
-1.000000000000000E+20
 20
-1.000000000000000E+20
 30
-1.000000000000000E+20
  9
$LIMMIN
 10
0.0
 20
0.0
  9
$LIMMAX
 10
12.0
 20
9.0
  9
$ORTHOMODE
 70
     0
  9
$REGENMODE
 70
     1
  9
$FILLMODE
 70
     1
  9
$QTEXTMODE
 70
     0
  9
$MIRRTEXT
 70
     1
  9
$DRAGMODE
 70
     2
  9
$LTSCALE
 40
1.0
  9
$OSMODE
 70
    37
  9
$ATTMODE
 70
     1
  9
$TEXTSIZE
 40
0.2
  9
$TRACEWID
 40
0.05
  9
$TEXTSTYLE
  7
STANDARD
  9
$CLAYER
  8
0
  9
$CELTYPE
  6
BYLAYER
  9
$CECOLOR
 62
   256
  9
$CELTSCALE
 40
1.0
  9
$DELOBJ
 70
     1
  9
$DISPSILH
 70
     0
  9
$DIMSCALE
 40
1.0
  9
$DIMASZ
 40
0.18
  9
$DIMEXO
 40
0.0625
  9
$DIMDLI
 40
0.38
  9
$DIMRND
 40
0.0
  9
$DIMDLE
 40
0.0
  9
$DIMEXE
 40
0.18
  9
$DIMTP
 40
0.0
  9
$DIMTM
 40
0.0
  9
$DIMTXT
 40
0.18
  9
$DIMCEN
 40
0.09
  9
$DIMTSZ
 40
0.0
  9
$DIMTOL
 70
     0
  9
$DIMLIM
 70
     0
  9
$DIMTIH
 70
     1
  9
$DIMTOH
 70
     1
  9
$DIMSE1
 70
     0
  9
$DIMSE2
 70
     0
  9
$DIMTAD
 70
     0
  9
$DIMZIN
 70
     0
  9
$DIMBLK
  1

  9
$DIMASO
 70
     1
  9
$DIMSHO
 70
     1
  9
$DIMPOST
  1

  9
$DIMAPOST
  1

  9
$DIMALT
 70
     0
  9
$DIMALTD
 70
     2
  9
$DIMALTF
 40
25.4
  9
$DIMLFAC
 40
1.0
  9
$DIMTOFL
 70
     0
  9
$DIMTVP
 40
0.0
  9
$DIMTIX
 70
     0
  9
$DIMSOXD
 70
     0
  9
$DIMSAH
 70
     0
  9
$DIMBLK1
  1

  9
$DIMBLK2
  1

  9
$DIMSTYLE
  2
STANDARD
  9
$DIMCLRD
 70
     0
  9
$DIMCLRE
 70
     0
  9
$DIMCLRT
 70
     0
  9
$DIMTFAC
 40
1.0
  9
$DIMGAP
 40
0.09
  9
$DIMJUST
 70
     0
  9
$DIMSD1
 70
     0
  9
$DIMSD2
 70
     0
  9
$DIMTOLJ
 70
     1
  9
$DIMTZIN
 70
     0
  9
$DIMALTZ
 70
     0
  9
$DIMALTTZ
 70
     0
  9
$DIMFIT
 70
     3
  9
$DIMUPT
 70
     0
  9
$DIMUNIT
 70
     2
  9
$DIMDEC
 70
     4
  9
$DIMTDEC
 70
     4
  9
$DIMALTU
 70
     2
  9
$DIMALTTD
 70
     2
  9
$DIMTXSTY
  7
STANDARD
  9
$DIMAUNIT
 70
     0
  9
$LUNITS
 70
     2
  9
$LUPREC
 70
     4
  9
$SKETCHINC
 40
0.1
  9
$FILLETRAD
 40
0.5
  9
$AUNITS
 70
     0
  9
$AUPREC
 70
     0
  9
$MENU
  1
.
  9
$ELEVATION
 40
0.0
  9
$PELEVATION
 40
0.0
  9
$THICKNESS
 40
0.0
  9
$LIMCHECK
 70
     0
  9
$CHAMFERA
 40
0.5
  9
$CHAMFERB
 40
0.5
  9
$CHAMFERC
 40
1.0
  9
$CHAMFERD
 40
0.0
  9
$SKPOLY
 70
     0
  9
$TDCREATE
 40
2455046.727156597
  9
$TDUPDATE
 40
2455046.727156609
  9
$TDINDWG
 40
0.0000000116
  9
$TDUSRTIMER
 40
0.0000000116
  9
$USRTIMER
 70
     1
  9
$ANGBASE
 50
0.0
  9
$ANGDIR
 70
     0
  9
$PDMODE
 70
     0
  9
$PDSIZE
 40
0.0
  9
$PLINEWID
 40
0.0
  9
$COORDS
 70
     1
  9
$SPLFRAME
 70
     0
  9
$SPLINETYPE
 70
     6
  9
$SPLINESEGS
 70
     8
  9
$ATTDIA
 70
     0
  9
$ATTREQ
 70
     1
  9
$HANDLING
 70
     1
  9
$HANDSEED
  5
1FB
  9
$SURFTAB1
 70
     6
  9
$SURFTAB2
 70
     6
  9
$SURFTYPE
 70
     6
  9
$SURFU
 70
     6
  9
$SURFV
 70
     6
  9
$UCSNAME
  2

  9
$UCSORG
 10
0.0
 20
0.0
 30
0.0
  9
$UCSXDIR
 10
1.0
 20
0.0
 30
0.0
  9
$UCSYDIR
 10
0.0
 20
1.0
 30
0.0
  9
$PUCSNAME
  2

  9
$PUCSORG
 10
0.0
 20
0.0
 30
0.0
  9
$PUCSXDIR
 10
1.0
 20
0.0
 30
0.0
  9
$PUCSYDIR
 10
0.0
 20
1.0
 30
0.0
  9
$USERI1
 70
     0
  9
$USERI2
 70
     0
  9
$USERI3
 70
     0
  9
$USERI4
 70
     0
  9
$USERI5
 70
     0
  9
$USERR1
 40
0.0
  9
$USERR2
 40
0.0
  9
$USERR3
 40
0.0
  9
$USERR4
 40
0.0
  9
$USERR5
 40
0.0
  9
$WORLDVIEW
 70
     1
  9
$SHADEDGE
 70
     3
  9
$SHADEDIF
 70
    70
  9
$TILEMODE
 70
     1
  9
$MAXACTVP
 70
    64
  9
$PINSBASE
 10
0.0
 20
0.0
 30
0.0
  9
$PLIMCHECK
 70
     0
  9
$PEXTMIN
 10
1.000000000000000E+20
 20
1.000000000000000E+20
 30
1.000000000000000E+20
  9
$PEXTMAX
 10
-1.000000000000000E+20
 20
-1.000000000000000E+20
 30
-1.000000000000000E+20
  9
$PLIMMIN
 10
0.0
 20
0.0
  9
$PLIMMAX
 10
12.0
 20
9.0
  9
$UNITMODE
 70
     0
  9
$VISRETAIN
 70
     1
  9
$PLINEGEN
 70
     0
  9
$PSLTSCALE
 70
     1
  9
$TREEDEPTH
 70
  3020
  9
$PICKSTYLE
 70
     1
  9
$CMLSTYLE
  2
STANDARD
  9
$CMLJUST
 70
     0
  9
$CMLSCALE
 40
1.0
  9
$PROXYGRAPHICS
 70
     1
  9
$MEASUREMENT
 70
     0
  0
ENDSEC
  0
SECTION
  2
CLASSES
  0
CLASS
  1
ACDBDICTIONARYWDFLT
  2
AcDbDictionaryWithDefault
  3
ObjectDBX Classes
 90
        0
280
     0
281
     0
  0
CLASS
  1
VISUALSTYLE
  2
AcDbVisualStyle
  3
ObjectDBX Classes
 90
     4095
280
     0
281
     0
  0
CLASS
  1
XRECORD
  2
AcDbXrecord
  3
AutoCAD 2000
 90
        0
280
     0
281
     0
  0
CLASS
  1
LWPOLYLINE
  2
AcDbPolyline
  3
AutoCAD 2000
 90
        0
280
     0
281
     1
  0
CLASS
  1
HATCH
  2
AcDbHatch
  3
AutoCAD 2000
 90
        0
280
     0
281
     1
  0
CLASS
  1
ACDBPLACEHOLDER
  2
AcDbPlaceHolder
  3
ObjectDBX Classes
 90
        0
280
     0
281
     0
  0
CLASS
  1
LAYOUT
  2
AcDbLayout
  3
ObjectDBX Classes
 90
        0
280
     0
281
     0
  0
ENDSEC
  0
SECTION
  2
TABLES
  0
TABLE
  2
VPORT
  5
8
330
0
100
AcDbSymbolTable
 70
     1
  0
VPORT
  5
29
330
8
100
AcDbSymbolTableRecord
100
AcDbViewportTableRecord
  2
*ACTIVE
 70
     0
 10
0.0
 20
0.0
 11
1.0
 21
1.0
 12
0.0
 22
0.0
 13
0.0
 23
0.0
 14
0.5
 24
0.5
 15
0.5
 25
0.5
 16
0.0
 26
0.0
 36
1.0
 17
0.0
 27
0.0
 37
-1000.0
 40
3.466257761979075
 41
1.352941176470588
 42
50.0
 43
5.496782550771987
 44
12.72475820475412
 50
0.0
 51
0.0
 71
     0
 72
   100
 73
     1
 74
     3
 75
     0
 76
     0
 77
     0
 78
     0
  0
ENDTAB
  0
TABLE
  2
LTYPE
  5
5
330
0
100
AcDbSymbolTable
 70
     1
  0
LTYPE
  5
14
330
5
100
AcDbSymbolTableRecord
100
AcDbLinetypeTableRecord
  2
BYBLOCK
 70
     0
  3

 72
    65
 73
     0
 40
0.0
  0
LTYPE
  5
15
330
5
100
AcDbSymbolTableRecord
100
AcDbLinetypeTableRecord
  2
BYLAYER
 70
     0
  3

 72
    65
 73
     0
 40
0.0
  0
LTYPE
  5
16
330
5
100
AcDbSymbolTableRecord
100
AcDbLinetypeTableRecord
  2
CONTINUOUS
 70
     0
  3
Solid line
 72
    65
 73
     0
 40
0.0
  0
ENDTAB
  0
TABLE
  2
LAYER
  5
2
330
0
100
AcDbSymbolTable
 70
     3
  0
LAYER
  5
10
330
2
100
AcDbSymbolTableRecord
100
AcDbLayerTableRecord
  2
0
 70
     0
 62
     7
  6
CONTINUOUS
  0
LAYER
  5
3B
330
2
100
AcDbSymbolTableRecord
100
AcDbLayerTableRecord
  2
PROFILEEDGES
 70
     0
 62
     7
  6
CONTINUOUS
  0
LAYER
  5
3C
330
2
100
AcDbSymbolTableRecord
100
AcDbLayerTableRecord
  2
SECTIONCUTEDGES
 70
     0
 62
     7
  6
CONTINUOUS
  0
ENDTAB
  0
TABLE
  2
STYLE
  5
3
330
0
100
AcDbSymbolTable
 70
     1
  0
STYLE
  5
11
330
3
100
AcDbSymbolTableRecord
100
AcDbTextStyleTableRecord
  2
STANDARD
 70
     0
 40
0.0
 41
1.0
 50
0.0
 71
     0
 42
0.2
  3
txt
  4

  0
ENDTAB
  0
TABLE
  2
VIEW
  5
6
330
0
100
AcDbSymbolTable
 70
     0
  0
ENDTAB
  0
TABLE
  2
UCS
  5
7
330
0
100
AcDbSymbolTable
 70
     0
  0
ENDTAB
  0
TABLE
  2
APPID
  5
9
330
0
100
AcDbSymbolTable
 70
     1
  0
APPID
  5
12
330
9
100
AcDbSymbolTableRecord
100
AcDbRegAppTableRecord
  2
ACAD
 70
     0
  0
ENDTAB
  0
TABLE
  2
DIMSTYLE
  5
A
330
0
100
AcDbSymbolTable
 70
     1
  0
DIMSTYLE
105
27
330
A
100
AcDbSymbolTableRecord
100
AcDbDimStyleTableRecord
  2
STANDARD
 70
     0
  3

  4

  5

  6

  7

 40
1.0
 41
0.18
 42
0.0625
 43
0.38
 44
0.18
 45
0.0
 46
0.0
 47
0.0
 48
0.0
140
0.18
141
0.09
142
0.0
143
25.4
144
1.0
145
0.0
146
1.0
147
0.09
 71
     0
 72
     0
 73
     1
 74
     1
 75
     0
 76
     0
 77
     0
 78
     0
170
     0
171
     2
172
     0
173
     0
174
     0
175
     0
176
     0
177
     0
178
     0
270
     2
271
     4
272
     4
273
     2
274
     2
340
11
275
     0
280
     0
281
     0
282
     0
283
     1
284
     0
285
     0
286
     0
287
     3
288
     0
  0
ENDTAB
  0
TABLE
  2
BLOCK_RECORD
  5
1
330
0
100
AcDbSymbolTable
 70
     1
  0
BLOCK_RECORD
  5
1F
330
1
100
AcDbSymbolTableRecord
100
AcDbBlockTableRecord
  2
*MODEL_SPACE
  0
BLOCK_RECORD
  5
1B
330
1
100
AcDbSymbolTableRecord
100
AcDbBlockTableRecord
  2
*PAPER_SPACE
  0
ENDTAB
  0
ENDSEC
  0
SECTION
  2
BLOCKS
  0
BLOCK
  5
20
330
1F
100
AcDbEntity
  8
0
100
AcDbBlockBegin
  2
*MODEL_SPACE
 70
     0
 10
0.0
 20
0.0
 30
0.0
  3
*MODEL_SPACE
  1

  0
ENDBLK
  5
21
330
1F
100
AcDbEntity
  8
0
100
AcDbBlockEnd
  0
BLOCK
  5
1C
330
1B
100
AcDbEntity
 67
     1
  8
0
100
AcDbBlockBegin
  2
*PAPER_SPACE
 70
     0
 10
0.0
 20
0.0
 30
0.0
  3
*PAPER_SPACE
  1

  0
ENDBLK
  5
1D
330
1B
100
AcDbEntity
 67
     1
  8
0
100
AcDbBlockEnd
  0
ENDSEC
  0
SECTION
  2
ENTITIES
  0
LINE
  5
3D
330
1F
100
AcDbEntity
  8
0
100
AcDbLine
 10
0.1081535636145642
 20
0.3709117155322322
 30
0.0
 11
0.1062689054973601
 21
0.4045763812625272
 31
0.0
  0
LINE
  5
3E
330
1F
100
AcDbEntity
  8
0
100
AcDbLine
 10
0.1062689054973601
 20
0.4045763812625272
 30
0.0
 11
0.093838448304243
 21
0.4365388488373533
 31
0.0
  0
LINE
  5
3F
330
1F
100
AcDbEntity
  8
0
100
AcDbLine
 10
0.093838448304243
 20
0.4365388488373533
 30
0.0
 11
0.0718091846738881
 21
0.46467913828656
 31
0.0
  0
LINE
  5
40
330
1F
100
AcDbEntity
  8
0
100
AcDbLine
 10
0.0718091846738881
 20
0.46467913828656
 30
0.0
 11
0.0417334256702164
 21
0.4871697944332852
 31
0.0
  0
LINE
  5
41
330
1F
100
AcDbEntity
  8
0
100
AcDbLine
 10
0.0417334256702164
 20
0.4871697944332852
 30
0.0
 11
0.0056504332126324
 21
0.5025763671147715
 31
0.0
  0
LINE
  5
42
330
1F
100
AcDbEntity
  8
0
100
AcDbLine
 10
0.0056504332126324
 20
0.5025763671147715
 30
0.0
 11
-0.0340491070847344
 21
0.5099295543366384
 31
0.0
  0
LINE
  5
43
330
1F
100
AcDbEntity
  8
0
100
AcDbLine
 10
-0.0340491070847344
 20
0.5099295543366384
 30
0.0
 11
-0.0747678349860251
 21
0.5087705390971073
 31
0.0
  0
LINE
  5
44
330
1F
100
AcDbEntity
  8
0
100
AcDbLine
 10
-0.0747678349860251
 20
0.5087705390971073
 30
0.0
 11
-0.113850607824371
 21
0.4991714774162098
 31
0.0
  0
LINE
  5
45
330
1F
100
AcDbEntity
  8
0
100
AcDbLine
 10
-0.113850607824371
 20
0.4991714774162098
 30
0.0
 11
-0.1487344348819814
 21
0.4817323179245522
 31
0.0
  0
LINE
  5
46
330
1F
100
AcDbEntity
  8
0
100
AcDbLine
 10
-0.1487344348819814
 20
0.4817323179245522
 30
0.0
 11
-0.1770969285013204
 21
0.4575537566990655
 31
0.0
  0
LINE
  5
47
330
1F
100
AcDbEntity
  8
0
100
AcDbLine
 10
-0.1770969285013204
 20
0.4575537566990655
 30
0.0
 11
-0.196999776413309
 21
0.4281848497700433
 31
0.0
  0
LINE
  5
48
330
1F
100
AcDbEntity
  8
0
100
AcDbLine
 10
-0.196999776413309
 20
0.4281848497700433
 30
0.0
 11
-0.2070214624215369
 21
0.3955433011347145
 31
0.0
  0
LINE
  5
49
330
1F
100
AcDbEntity
  8
0
100
AcDbLine
 10
-0.2070214624215369
 20
0.3955433011347145
 30
0.0
 11
-0.2063704924812222
 21
0.3618072757535762
 31
0.0
  0
LINE
  5
4A
330
1F
100
AcDbEntity
  8
0
100
AcDbLine
 10
-0.2063704924812222
 20
0.3618072757535762
 30
0.0
 11
-0.1949676709543714
 21
0.3292800576847274
 31
0.0
  0
LINE
  5
4B
330
1F
100
AcDbEntity
  8
0
100
AcDbLine
 10
-0.1949676709543714
 20
0.3292800576847274
 30
0.0
 11
-0.1734846738357373
 21
0.3002328760877945
 31
0.0
  0
LINE
  5
4C
330
1F
100
AcDbEntity
  8
0
100
AcDbLine
 10
-0.1734846738357373
 20
0.3002328760877945
 30
0.0
 11
-0.1433273795296437
 21
0.276736123341344
 31
0.0
  0
LINE
  5
4D
330
1F
100
AcDbEntity
  8
0
100
AcDbLine
 10
-0.1433273795296437
 20
0.276736123341344
 30
0.0
 11
-0.1065567987635261
 21
0.2604938438152104
 31
0.0
  0
LINE
  5
4E
330
1F
100
AcDbEntity
  8
0
100
AcDbLine
 10
-0.1065567987635261
 20
0.2604938438152104
 30
0.0
 11
-0.0657478183659299
 21
0.2526993417455671
 31
0.0
  0
LINE
  5
4F
330
1F
100
AcDbEntity
  8
0
100
AcDbLine
 10
-0.0657478183659299
 20
0.2526993417455671
 30
0.0
 11
-0.0237951331629647
 21
0.2539297479199973
 31
0.0
  0
LINE
  5
50
330
1F
100
AcDbEntity
  8
0
100
AcDbLine
 10
-0.0237951331629647
 20
0.2539297479199973
 30
0.0
 11
0.0163153777910002
 21
0.2640937657211025
 31
0.0
  0
LINE
  5
51
330
1F
100
AcDbEntity
  8
0
100
AcDbLine
 10
0.0163153777910002
 20
0.2640937657211025
 30
0.0
 11
0.0517453046849011
 21
0.282439991702614
 31
0.0
  0
LINE
  5
52
330
1F
100
AcDbEntity
  8
0
100
AcDbLine
 10
0.0517453046849011
 20
0.282439991702614
 30
0.0
 11
0.0800259938770361
 21
0.3076246182437711
 31
0.0
  0
LINE
  5
53
330
1F
100
AcDbEntity
  8
0
100
AcDbLine
 10
0.0800259938770361
 20
0.3076246182437711
 30
0.0
 11
0.0992411510311361
 21
0.3378290263912569
 31
0.0
  0
LINE
  5
54
330
1F
100
AcDbEntity
  8
0
100
AcDbLine
 10
0.0992411510311361
 20
0.3378290263912569
 30
0.0
 11
0.1081535636145642
 21
0.3709117155322322
 31
0.0
  0
LINE
  5
55
330
1F
100
AcDbEntity
  8
0
100
AcDbLine
 10
1.309659316887649
 20
0.4057036801768279
 30
0.0
 11
1.268624442829776
 21
0.4045158568802072
 31
0.0
  0
LINE
  5
56
330
1F
100
AcDbEntity
  8
0
100
AcDbLine
 10
1.198098193943115
 20
0.3768044400207869
 30
0.0
 11
1.173277014281144
 21
0.352022025071429
 31
0.0
  0
LINE
  5
57
330
1F
100
AcDbEntity
  8
0
100
AcDbLine
 10
1.230605115803699
 20
0.3946780495523252
 30
0.0
 11
1.198098193943115
 21
0.3768044400207869
 31
0.0
  0
LINE
  5
58
330
1F
100
AcDbEntity
  8
0
100
AcDbLine
 10
1.268624442829776
 20
0.4045158568802072
 30
0.0
 11
1.230605115803699
 21
0.3946780495523252
 31
0.0
  0
LINE
  5
59
330
1F
100
AcDbEntity
  8
0
100
AcDbLine
 10
1.468717269487699
 20
0.2977154198668842
 30
0.0
 11
1.450971754929966
 21
0.3304808501145654
 31
0.0
  0
LINE
  5
5A
330
1F
100
AcDbEntity
  8
0
100
AcDbLine
 10
1.476061107204501
 20
0.2632017134212887
 30
0.0
 11
1.468717269487699
 21
0.2977154198668842
 31
0.0
  0
LINE
  5
5B
330
1F
100
AcDbEntity
  8
0
100
AcDbLine
 10
1.351034914837318
 20
0.3981676565166395
 30
0.0
 11
1.309659316887649
 21
0.4057036801768279
 31
0.0
  0
LINE
  5
5C
330
1F
100
AcDbEntity
  8
0
100
AcDbLine
 10
1.390049249902439
 20
0.3823774746130164
 30
0.0
 11
1.351034914837318
 21
0.3981676565166395
 31
0.0
  0
LINE
  5
5D
330
1F
100
AcDbEntity
  8
0
100
AcDbLine
 10
1.450971754929966
 20
0.3304808501145654
 30
0.0
 11
1.42412674654967
 21
0.3593255436316395
 31
0.0
  0
LINE
  5
5E
330
1F
100
AcDbEntity
  8
0
100
AcDbLine
 10
1.42412674654967
 20
0.3593255436316395
 30
0.0
 11
1.390049249902439
 21
0.3823774746130164
 31
0.0
  0
LINE
  5
5F
330
1F
100
AcDbEntity
  8
0
100
AcDbLine
 10
1.17583769343913
 20
0.2205153783540004
 30
0.0
 11
1.20227070048782
 21
0.1907292471012834
 31
0.0
  0
LINE
  5
60
330
1F
100
AcDbEntity
  8
0
100
AcDbLine
 10
1.157854763099889
 20
0.3219172774089445
 30
0.0
 11
1.152962882109733
 21
0.2884548545758526
 31
0.0
  0
LINE
  5
61
330
1F
100
AcDbEntity
  8
0
100
AcDbLine
 10
1.173277014281144
 20
0.352022025071429
 30
0.0
 11
1.157854763099889
 21
0.3219172774089445
 31
0.0
  0
LINE
  5
62
330
1F
100
AcDbEntity
  8
0
100
AcDbLine
 10
1.152962882109733
 20
0.2884548545758526
 30
0.0
 11
1.15905355026011
 21
0.253867070457737
 31
0.0
  0
LINE
  5
63
330
1F
100
AcDbEntity
  8
0
100
AcDbLine
 10
1.15905355026011
 20
0.253867070457737
 30
0.0
 11
1.17583769343913
 21
0.2205153783540004
 31
0.0
  0
LINE
  5
64
330
1F
100
AcDbEntity
  8
0
100
AcDbLine
 10
1.20227070048782
 20
0.1907292471012834
 30
0.0
 11
1.23659603606158
 21
0.1666328920656865
 31
0.0
  0
LINE
  5
65
330
1F
100
AcDbEntity
  8
0
100
AcDbLine
 10
1.23659603606158
 20
0.1666328920656865
 30
0.0
 11
1.276451743702639
 21
0.1499751645416546
 31
0.0
  0
LINE
  5
66
330
1F
100
AcDbEntity
  8
0
100
AcDbLine
 10
1.276451743702639
 20
0.1499751645416546
 30
0.0
 11
1.319036829613158
 21
0.1419810119501977
 31
0.0
  0
LINE
  5
67
330
1F
100
AcDbEntity
  8
0
100
AcDbLine
 10
1.319036829613158
 20
0.1419810119501977
 30
0.0
 11
1.361325150881299
 21
0.1432429462147452
 31
0.0
  0
LINE
  5
68
330
1F
100
AcDbEntity
  8
0
100
AcDbLine
 10
1.47237850980049
 20
0.2292813472080665
 30
0.0
 11
1.476061107204501
 21
0.2632017134212887
 31
0.0
  0
LINE
  5
69
330
1F
100
AcDbEntity
  8
0
100
AcDbLine
 10
1.457797704464307
 20
0.1983092727717152
 30
0.0
 11
1.47237850980049
 21
0.2292813472080665
 31
0.0
  0
LINE
  5
6A
330
1F
100
AcDbEntity
  8
0
100
AcDbLine
 10
1.433224641372706
 20
0.1724824670635437
 30
0.0
 11
1.457797704464307
 21
0.1983092727717152
 31
0.0
  0
LINE
  5
6B
330
1F
100
AcDbEntity
  8
0
100
AcDbLine
 10
1.400305922555224
 20
0.1536672342452269
 30
0.0
 11
1.433224641372706
 21
0.1724824670635437
 31
0.0
  0
LINE
  5
6C
330
1F
100
AcDbEntity
  8
0
100
AcDbLine
 10
1.361325150881299
 20
0.1432429462147452
 30
0.0
 11
1.400305922555224
 21
0.1536672342452269
 31
0.0
  0
LINE
  5
6D
330
1F
100
AcDbEntity
  8
0
100
AcDbLine
 10
0.9713981215043372
 20
-0.3351649489825974
 30
0.0
 11
0.9885551884484404
 21
-0.3731983529263487
 31
0.0
  0
LINE
  5
6E
330
1F
100
AcDbEntity
  8
0
100
AcDbLine
 10
0.9888337118665855
 20
-0.2233461856112208
 30
0.0
 11
0.9716861335301539
 21
-0.2576235365022753
 31
0.0
  0
LINE
  5
6F
330
1F
100
AcDbEntity
  8
0
100
AcDbLine
 10
1.050954488257845
 20
-0.1748054183636476
 30
0.0
 11
1.015878203300157
 21
-0.1951409130669591
 31
0.0
  0
LINE
  5
70
330
1F
100
AcDbEntity
  8
0
100
AcDbLine
 10
1.310071585854277
 20
-0.3245235044900038
 30
0.0
 11
1.302936953242662
 21
-0.2851914954939588
 31
0.0
  0
LINE
  5
71
330
1F
100
AcDbEntity
  8
0
100
AcDbLine
 10
1.284670603219177
 20
-0.2478713929112637
 30
0.0
 11
1.256624344506518
 21
-0.2150328004109743
 31
0.0
  0
LINE
  5
72
330
1F
100
AcDbEntity
  8
0
100
AcDbLine
 10
1.015878203300157
 20
-0.1951409130669591
 30
0.0
 11
0.9888337118665855
 21
-0.2233461856112208
 31
0.0
  0
LINE
  5
73
330
1F
100
AcDbEntity
  8
0
100
AcDbLine
 10
0.9716861335301539
 20
-0.2576235365022753
 30
0.0
 11
0.9656934310282537
 21
-0.2957428105962488
 31
0.0
  0
LINE
  5
74
330
1F
100
AcDbEntity
  8
0
100
AcDbLine
 10
0.9656934310282537
 20
-0.2957428105962488
 30
0.0
 11
0.9713981215043372
 21
-0.3351649489825974
 31
0.0
  0
LINE
  5
75
330
1F
100
AcDbEntity
  8
0
100
AcDbLine
 10
1.220754195561166
 20
-0.1887996496775498
 30
0.0
 11
1.179476467676083
 21
-0.1708358180642854
 31
0.0
  0
LINE
  5
76
330
1F
100
AcDbEntity
  8
0
100
AcDbLine
 10
1.091722160852377
 20
-0.1636149794264302
 30
0.0
 11
1.050954488257845
 21
-0.1748054183636476
 31
0.0
  0
LINE
  5
77
330
1F
100
AcDbEntity
  8
0
100
AcDbLine
 10
1.289237760788544
 20
-0.3985325855692995
 30
0.0
 11
1.305446465000545
 21
-0.3631999543676008
 31
0.0
  0
LINE
  5
78
330
1F
100
AcDbEntity
  8
0
100
AcDbLine
 10
1.305446465000545
 20
-0.3631999543676008
 30
0.0
 11
1.310071585854277
 21
-0.3245235044900038
 31
0.0
  0
LINE
  5
79
330
1F
100
AcDbEntity
  8
0
100
AcDbLine
 10
1.302936953242662
 20
-0.2851914954939588
 30
0.0
 11
1.284670603219177
 21
-0.2478713929112637
 31
0.0
  0
LINE
  5
7A
330
1F
100
AcDbEntity
  8
0
100
AcDbLine
 10
1.256624344506518
 20
-0.2150328004109743
 30
0.0
 11
1.220754195561166
 21
-0.1887996496775498
 31
0.0
  0
LINE
  5
7B
330
1F
100
AcDbEntity
  8
0
100
AcDbLine
 10
1.135511366955224
 20
-0.1622639544339581
 30
0.0
 11
1.091722160852377
 21
-0.1636149794264302
 31
0.0
  0
LINE
  5
7C
330
1F
100
AcDbEntity
  8
0
100
AcDbLine
 10
1.179476467676083
 20
-0.1708358180642854
 30
0.0
 11
1.135511366955224
 21
-0.1622639544339581
 31
0.0
  0
LINE
  5
7D
330
1F
100
AcDbEntity
  8
0
100
AcDbLine
 10
1.016110017679266
 20
-0.4071824012889269
 30
0.0
 11
1.052238364215713
 21
-0.4346863325985861
 31
0.0
  0
LINE
  5
7E
330
1F
100
AcDbEntity
  8
0
100
AcDbLine
 10
1.052238364215713
 20
-0.4346863325985861
 30
0.0
 11
1.094454865264091
 21
-0.4537057479991056
 31
0.0
  0
LINE
  5
7F
330
1F
100
AcDbEntity
  8
0
100
AcDbLine
 10
1.262451828466703
 20
-0.428008592518736
 30
0.0
 11
1.289237760788544
 21
-0.3985325855692995
 31
0.0
  0
LINE
  5
80
330
1F
100
AcDbEntity
  8
0
100
AcDbLine
 10
1.226884374586686
 20
-0.4494898003898848
 30
0.0
 11
1.262451828466703
 21
-0.428008592518736
 31
0.0
  0
LINE
  5
81
330
1F
100
AcDbEntity
  8
0
100
AcDbLine
 10
1.185007317951642
 20
-0.461393844164772
 30
0.0
 11
1.226884374586686
 21
-0.4494898003898848
 31
0.0
  0
LINE
  5
82
330
1F
100
AcDbEntity
  8
0
100
AcDbLine
 10
1.139787808192624
 20
-0.4628350447186108
 30
0.0
 11
1.185007317951642
 21
-0.461393844164772
 31
0.0
  0
LINE
  5
83
330
1F
100
AcDbEntity
  8
0
100
AcDbLine
 10
1.094454865264091
 20
-0.4537057479991056
 30
0.0
 11
1.139787808192624
 21
-0.4628350447186108
 31
0.0
  0
LINE
  5
84
330
1F
100
AcDbEntity
  8
0
100
AcDbLine
 10
0.9885551884484404
 20
-0.3731983529263487
 30
0.0
 11
1.016110017679266
 21
-0.4071824012889269
 31
0.0
  0
LINE
  5
85
330
1F
100
AcDbEntity
  8
0
100
AcDbLine
 10
0.6196818447911296
 20
-0.9215628401651523
 30
0.0
 11
0.6643540873175252
 21
-0.908466899174295
 31
0.0
  0
LINE
  5
86
330
1F
100
AcDbEntity
  8
0
100
AcDbLine
 10
0.737542807037846
 20
-0.6869072074523198
 30
0.0
 11
0.7102092139825837
 21
-0.6508645897106446
 31
0.0
  0
LINE
  5
87
330
1F
100
AcDbEntity
  8
0
100
AcDbLine
 10
0.7329333853921038
 20
-0.8524258791662556
 30
0.0
 11
0.7521305581178314
 21
-0.8135856627628787
 31
0.0
  0
LINE
  5
88
330
1F
100
AcDbEntity
  8
0
100
AcDbLine
 10
0.6742765807430815
 20
-0.6220807254576831
 30
0.0
 11
0.6321707726211018
 21
-0.6023747466497356
 31
0.0
  0
LINE
  5
89
330
1F
100
AcDbEntity
  8
0
100
AcDbLine
 10
0.7030027436597377
 20
-0.8848389758486125
 30
0.0
 11
0.7329333853921038
 21
-0.8524258791662556
 31
0.0
  0
LINE
  5
8A
330
1F
100
AcDbEntity
  8
0
100
AcDbLine
 10
0.7543581887304301
 20
-0.7278835115882751
 30
0.0
 11
0.737542807037846
 21
-0.6869072074523198
 31
0.0
  0
LINE
  5
8B
330
1F
100
AcDbEntity
  8
0
100
AcDbLine
 10
0.4592816153396472
 20
-0.6290378471835142
 30
0.0
 11
0.4291510667665477
 21
-0.659987941271516
 31
0.0
  0
LINE
  5
8C
330
1F
100
AcDbEntity
  8
0
100
AcDbLine
 10
0.540721240768401
 20
-0.594454660202416
 30
0.0
 11
0.4973148884229314
 21
-0.6067290058532147
 31
0.0
  0
LINE
  5
8D
330
1F
100
AcDbEntity
  8
0
100
AcDbLine
 10
0.4089924228674366
 20
-0.6976132234361632
 30
0.0
 11
0.4002704115584501
 21
-0.7394714047166467
 31
0.0
  0
LINE
  5
8E
330
1F
100
AcDbEntity
  8
0
100
AcDbLine
 10
0.403722724202944
 20
-0.7827776728689682
 30
0.0
 11
0.4192723596120406
 21
-0.824575188541881
 31
0.0
  0
LINE
  5
8F
330
1F
100
AcDbEntity
  8
0
100
AcDbLine
 10
0.5721598813894823
 20
-0.923148451464776
 30
0.0
 11
0.6196818447911296
 21
-0.9215628401651523
 31
0.0
  0
LINE
  5
90
330
1F
100
AcDbEntity
  8
0
100
AcDbLine
 10
0.4973148884229314
 20
-0.6067290058532147
 30
0.0
 11
0.4592816153396472
 21
-0.6290378471835142
 31
0.0
  0
LINE
  5
91
330
1F
100
AcDbEntity
  8
0
100
AcDbLine
 10
0.4821223742062197
 20
-0.8921834881070968
 30
0.0
 11
0.5251895096041369
 21
-0.9131047849568673
 31
0.0
  0
LINE
  5
92
330
1F
100
AcDbEntity
  8
0
100
AcDbLine
 10
0.5251895096041369
 20
-0.9131047849568673
 30
0.0
 11
0.5721598813894823
 21
-0.923148451464776
 31
0.0
  0
LINE
  5
93
330
1F
100
AcDbEntity
  8
0
100
AcDbLine
 10
0.5866660539783284
 20
-0.5929728712618217
 30
0.0
 11
0.540721240768401
 21
-0.594454660202416
 31
0.0
  0
LINE
  5
94
330
1F
100
AcDbEntity
  8
0
100
AcDbLine
 10
0.4002704115584501
 20
-0.7394714047166467
 30
0.0
 11
0.403722724202944
 21
-0.7827776728689682
 31
0.0
  0
LINE
  5
95
330
1F
100
AcDbEntity
  8
0
100
AcDbLine
 10
0.4192723596120406
 20
-0.824575188541881
 30
0.0
 11
0.4459902737158972
 21
-0.8619365628678125
 31
0.0
  0
LINE
  5
96
330
1F
100
AcDbEntity
  8
0
100
AcDbLine
 10
0.6321707726211018
 20
-0.6023747466497356
 30
0.0
 11
0.5866660539783284
 21
-0.5929728712618217
 31
0.0
  0
LINE
  5
97
330
1F
100
AcDbEntity
  8
0
100
AcDbLine
 10
0.4459902737158972
 20
-0.8619365628678125
 30
0.0
 11
0.4821223742062197
 21
-0.8921834881070968
 31
0.0
  0
LINE
  5
98
330
1F
100
AcDbEntity
  8
0
100
AcDbLine
 10
0.7593872119767205
 20
-0.7710860157735343
 30
0.0
 11
0.7543581887304301
 21
-0.7278835115882751
 31
0.0
  0
LINE
  5
99
330
1F
100
AcDbEntity
  8
0
100
AcDbLine
 10
0.4291510667665477
 20
-0.659987941271516
 30
0.0
 11
0.4089924228674366
 21
-0.6976132234361632
 31
0.0
  0
LINE
  5
9A
330
1F
100
AcDbEntity
  8
0
100
AcDbLine
 10
0.7102092139825837
 20
-0.6508645897106446
 30
0.0
 11
0.6742765807430815
 21
-0.6220807254576831
 31
0.0
  0
LINE
  5
9B
330
1F
100
AcDbEntity
  8
0
100
AcDbLine
 10
0.7521305581178314
 20
-0.8135856627628787
 30
0.0
 11
0.7593872119767205
 21
-0.7710860157735343
 31
0.0
  0
LINE
  5
9C
330
1F
100
AcDbEntity
  8
0
100
AcDbLine
 10
0.6643540873175252
 20
-0.908466899174295
 30
0.0
 11
0.7030027436597377
 21
-0.8848389758486125
 31
0.0
  0
LINE
  5
9D
330
1F
100
AcDbEntity
  8
0
100
AcDbLine
 10
-0.3864617323886806
 20
-0.9059403844772839
 30
0.0
 11
-0.3741514556296516
 21
-0.9488049016512063
 31
0.0
  0
LINE
  5
9E
330
1F
100
AcDbEntity
  8
0
100
AcDbLine
 10
-0.3741514556296516
 20
-0.9488049016512063
 30
0.0
 11
-0.35016439220716
 21
-0.9871239770587285
 31
0.0
  0
LINE
  5
9F
330
1F
100
AcDbEntity
  8
0
100
AcDbLine
 10
-0.2741548495255699
 20
-1.039609860625081
 30
0.0
 11
-0.2274058667771308
 21
-1.04991298747997
 31
0.0
  0
LINE
  5
A0
330
1F
100
AcDbEntity
  8
0
100
AcDbLine
 10
-0.3160557938773968
 20
-1.018148963491739
 30
0.0
 11
-0.2741548495255699
 21
-1.039609860625081
 31
0.0
  0
LINE
  5
A1
330
1F
100
AcDbEntity
  8
0
100
AcDbLine
 10
-0.35016439220716
 20
-0.9871239770587285
 30
0.0
 11
-0.3160557938773968
 21
-1.018148963491739
 31
0.0
  0
LINE
  5
A2
330
1F
100
AcDbEntity
  8
0
100
AcDbLine
 10
-0.0917469611855981
 20
-1.010615299189759
 30
0.0
 11
-0.0587817706981469
 21
-0.9773691483424038
 31
0.0
  0
LINE
  5
A3
330
1F
100
AcDbEntity
  8
0
100
AcDbLine
 10
-0.2322821641293646
 20
-0.7128676711931659
 30
0.0
 11
-0.2772343779181934
 21
-0.7254487080458536
 31
0.0
  0
LINE
  5
A4
330
1F
100
AcDbEntity
  8
0
100
AcDbLine
 10
-0.1328252314478675
 20
-1.034852254127968
 30
0.0
 11
-0.0917469611855981
 21
-1.010615299189759
 31
0.0
  0
LINE
  5
A5
330
1F
100
AcDbEntity
  8
0
100
AcDbLine
 10
-0.1403464641608273
 20
-0.720985605801332
 30
0.0
 11
-0.1856458425331562
 21
-0.7113488849074916
 31
0.0
  0
LINE
  5
A6
330
1F
100
AcDbEntity
  8
0
100
AcDbLine
 10
-0.2772343779181934
 20
-0.7254487080458536
 30
0.0
 11
-0.3175721217486924
 21
-0.7483159943034804
 31
0.0
  0
LINE
  5
A7
330
1F
100
AcDbEntity
  8
0
100
AcDbLine
 10
-0.0587817706981469
 20
-0.9773691483424038
 30
0.0
 11
-0.0361636264996689
 21
-0.9375343851348661
 31
0.0
  0
LINE
  5
A8
330
1F
100
AcDbEntity
  8
0
100
AcDbLine
 10
-0.0361636264996689
 20
-0.9375343851348661
 30
0.0
 11
-0.025340101772376
 21
-0.8939510983473059
 31
0.0
  0
LINE
  5
A9
330
1F
100
AcDbEntity
  8
0
100
AcDbLine
 10
-0.2274058667771308
 20
-1.04991298747997
 30
0.0
 11
-0.1791437059580964
 21
-1.048286396823835
 31
0.0
  0
LINE
  5
AA
330
1F
100
AcDbEntity
  8
0
100
AcDbLine
 10
-0.1791437059580964
 20
-1.048286396823835
 30
0.0
 11
-0.1328252314478675
 21
-1.034852254127968
 31
0.0
  0
LINE
  5
AB
330
1F
100
AcDbEntity
  8
0
100
AcDbLine
 10
-0.025340101772376
 20
-0.8939510983473059
 30
0.0
 11
-0.0269006008936896
 21
-0.8496519707830351
 31
0.0
  0
LINE
  5
AC
330
1F
100
AcDbEntity
  8
0
100
AcDbLine
 10
-0.0653048274563597
 20
-0.7706903976084545
 30
0.0
 11
-0.0993303653487175
 21
-0.7411845764385199
 31
0.0
  0
LINE
  5
AD
330
1F
100
AcDbEntity
  8
0
100
AcDbLine
 10
-0.040576954399112
 20
-0.8076401508081982
 30
0.0
 11
-0.0653048274563597
 21
-0.7706903976084545
 31
0.0
  0
LINE
  5
AE
330
1F
100
AcDbEntity
  8
0
100
AcDbLine
 10
-0.0269006008936896
 20
-0.8496519707830351
 30
0.0
 11
-0.040576954399112
 21
-0.8076401508081982
 31
0.0
  0
LINE
  5
AF
330
1F
100
AcDbEntity
  8
0
100
AcDbLine
 10
-0.3741240135647474
 20
-0.818616287414519
 30
0.0
 11
-0.3863968594651671
 21
-0.8615335147138403
 31
0.0
  0
LINE
  5
B0
330
1F
100
AcDbEntity
  8
0
100
AcDbLine
 10
-0.3863968594651671
 20
-0.8615335147138403
 30
0.0
 11
-0.3864617323886806
 21
-0.9059403844772839
 31
0.0
  0
LINE
  5
B1
330
1F
100
AcDbEntity
  8
0
100
AcDbLine
 10
-0.1856458425331562
 20
-0.7113488849074916
 30
0.0
 11
-0.2322821641293646
 21
-0.7128676711931659
 31
0.0
  0
LINE
  5
B2
330
1F
100
AcDbEntity
  8
0
100
AcDbLine
 10
-0.0993303653487175
 20
-0.7411845764385199
 30
0.0
 11
-0.1403464641608273
 21
-0.720985605801332
 31
0.0
  0
LINE
  5
B3
330
1F
100
AcDbEntity
  8
0
100
AcDbLine
 10
-0.3175721217486924
 20
-0.7483159943034804
 30
0.0
 11
-0.3506208398515395
 21
-0.7800430420590446
 31
0.0
  0
LINE
  5
B4
330
1F
100
AcDbEntity
  8
0
100
AcDbLine
 10
-0.3506208398515395
 20
-0.7800430420590446
 30
0.0
 11
-0.3741240135647474
 21
-0.818616287414519
 31
0.0
  0
LINE
  5
B5
330
1F
100
AcDbEntity
  8
0
100
AcDbLine
 10
-0.8740836412442242
 20
-0.7699688753174747
 30
0.0
 11
-0.8323407776911469
 21
-0.746999474456603
 31
0.0
  0
LINE
  5
B6
330
1F
100
AcDbEntity
  8
0
100
AcDbLine
 10
-1.012005668869173
 20
-0.7744773191715919
 30
0.0
 11
-0.9672397125713328
 21
-0.7842404658061791
 31
0.0
  0
LINE
  5
B7
330
1F
100
AcDbEntity
  8
0
100
AcDbLine
 10
-1.051253383980441
 20
-0.7541394570722271
 30
0.0
 11
-1.012005668869173
 21
-0.7744773191715919
 31
0.0
  0
LINE
  5
B8
330
1F
100
AcDbEntity
  8
0
100
AcDbLine
 10
-0.7729266021733681
 20
-0.6777226590197358
 30
0.0
 11
-0.7592233161707193
 21
-0.6363952098353448
 31
0.0
  0
LINE
  5
B9
330
1F
100
AcDbEntity
  8
0
100
AcDbLine
 10
-0.8323407776911469
 20
-0.746999474456603
 30
0.0
 11
-0.7978383102128661
 21
-0.7154872303870723
 31
0.0
  0
LINE
  5
BA
330
1F
100
AcDbEntity
  8
0
100
AcDbLine
 10
-0.7575262361811201
 20
-0.594379155921569
 30
0.0
 11
-0.7677964221051401
 21
-0.5545233818675824
 31
0.0
  0
LINE
  5
BB
330
1F
100
AcDbEntity
  8
0
100
AcDbLine
 10
-0.7978383102128661
 20
-0.7154872303870723
 30
0.0
 11
-0.7729266021733681
 21
-0.6777226590197358
 31
0.0
  0
LINE
  5
BC
330
1F
100
AcDbEntity
  8
0
100
AcDbLine
 10
-0.7592233161707193
 20
-0.6363952098353448
 30
0.0
 11
-0.7575262361811201
 21
-0.594379155921569
 31
0.0
  0
LINE
  5
BD
330
1F
100
AcDbEntity
  8
0
100
AcDbLine
 10
-0.9672397125713328
 20
-0.7842404658061791
 30
0.0
 11
-0.9201425469750372
 21
-0.782699159254167
 31
0.0
  0
LINE
  5
BE
330
1F
100
AcDbEntity
  8
0
100
AcDbLine
 10
-0.9201425469750372
 20
-0.782699159254167
 30
0.0
 11
-0.8740836412442242
 21
-0.7699688753174747
 31
0.0
  0
LINE
  5
BF
330
1F
100
AcDbEntity
  8
0
100
AcDbLine
 10
-0.8587070785108745
 20
-0.4722878138662426
 30
0.0
 11
-0.9021450226019938
 21
-0.4631401784726021
 31
0.0
  0
LINE
  5
C0
330
1F
100
AcDbEntity
  8
0
100
AcDbLine
 10
-0.9021450226019938
 20
-0.4631401784726021
 30
0.0
 11
-0.9476926383609114
 21
-0.4645819140296586
 31
0.0
  0
LINE
  5
C1
330
1F
100
AcDbEntity
  8
0
100
AcDbLine
 10
-0.7892021866427853
 20
-0.5194625285678002
 30
0.0
 11
-0.8202099133808821
 21
-0.4914601193544154
 31
0.0
  0
LINE
  5
C2
330
1F
100
AcDbEntity
  8
0
100
AcDbLine
 10
-0.7677964221051401
 20
-0.5545233818675824
 30
0.0
 11
-0.7892021866427853
 21
-0.5194625285678002
 31
0.0
  0
LINE
  5
C3
330
1F
100
AcDbEntity
  8
0
100
AcDbLine
 10
-0.8202099133808821
 20
-0.4914601193544154
 30
0.0
 11
-0.8587070785108745
 21
-0.4722878138662426
 31
0.0
  0
LINE
  5
C4
330
1F
100
AcDbEntity
  8
0
100
AcDbLine
 10
-0.9476926383609114
 20
-0.4645819140296586
 30
0.0
 11
-0.9923958126197241
 21
-0.4765242446448362
 31
0.0
  0
LINE
  5
C5
330
1F
100
AcDbEntity
  8
0
100
AcDbLine
 10
-0.9923958126197241
 20
-0.4765242446448362
 30
0.0
 11
-1.0333401007546
 21
-0.498228572374097
 31
0.0
  0
LINE
  5
C6
330
1F
100
AcDbEntity
  8
0
100
AcDbLine
 10
-1.0333401007546
 20
-0.498228572374097
 30
0.0
 11
-1.067815041678319
 21
-0.5283377099117494
 31
0.0
  0
LINE
  5
C7
330
1F
100
AcDbEntity
  8
0
100
AcDbLine
 10
-1.067815041678319
 20
-0.5283377099117494
 30
0.0
 11
-1.093477492417715
 21
-0.564937082641692
 31
0.0
  0
LINE
  5
C8
330
1F
100
AcDbEntity
  8
0
100
AcDbLine
 10
-1.082233159789583
 20
-0.7247338868646791
 30
0.0
 11
-1.051253383980441
 21
-0.7541394570722271
 31
0.0
  0
LINE
  5
C9
330
1F
100
AcDbEntity
  8
0
100
AcDbLine
 10
-1.102840117253246
 20
-0.6884082639447953
 30
0.0
 11
-1.082233159789583
 21
-0.7247338868646791
 31
0.0
  0
LINE
  5
CA
330
1F
100
AcDbEntity
  8
0
100
AcDbLine
 10
-1.111754764423882
 20
-0.6477648945430974
 30
0.0
 11
-1.102840117253246
 21
-0.6884082639447953
 31
0.0
  0
LINE
  5
CB
330
1F
100
AcDbEntity
  8
0
100
AcDbLine
 10
-1.108508558971308
 20
-0.6056493240966547
 30
0.0
 11
-1.111754764423882
 21
-0.6477648945430974
 31
0.0
  0
LINE
  5
CC
330
1F
100
AcDbEntity
  8
0
100
AcDbLine
 10
-1.093477492417715
 20
-0.564937082641692
 30
0.0
 11
-1.108508558971308
 21
-0.6056493240966547
 31
0.0
  0
LINE
  5
CD
330
1F
100
AcDbEntity
  8
0
100
AcDbLine
 10
-1.303587979746132
 20
-0.2334010755481977
 30
0.0
 11
-1.263185392726632
 21
-0.212895239863398
 31
0.0
  0
LINE
  5
CE
330
1F
100
AcDbEntity
  8
0
100
AcDbLine
 10
-1.204112041758321
 20
-0.1510162292486299
 30
0.0
 11
-1.189405232559865
 21
-0.1140787683375312
 31
0.0
  0
LINE
  5
CF
330
1F
100
AcDbEntity
  8
0
100
AcDbLine
 10
-1.22925430930634
 20
-0.184754107458268
 30
0.0
 11
-1.204112041758321
 21
-0.1510162292486299
 31
0.0
  0
LINE
  5
D0
330
1F
100
AcDbEntity
  8
0
100
AcDbLine
 10
-1.263185392726632
 20
-0.212895239863398
 30
0.0
 11
-1.22925430930634
 21
-0.184754107458268
 31
0.0
  0
LINE
  5
D1
330
1F
100
AcDbEntity
  8
0
100
AcDbLine
 10
-1.498407038784735
 20
-0.1930126213456082
 30
0.0
 11
-1.47033035100362
 21
-0.2192700024437046
 31
0.0
  0
LINE
  5
D2
330
1F
100
AcDbEntity
  8
0
100
AcDbLine
 10
-1.516408123766235
 20
-0.1605639377603984
 30
0.0
 11
-1.498407038784735
 21
-0.1930126213456082
 31
0.0
  0
LINE
  5
D3
330
1F
100
AcDbEntity
  8
0
100
AcDbLine
 10
-1.347632348327019
 20
-0.2447636781846625
 30
0.0
 11
-1.303587979746132
 21
-0.2334010755481977
 31
0.0
  0
LINE
  5
D4
330
1F
100
AcDbEntity
  8
0
100
AcDbLine
 10
-1.392189664756712
 20
-0.2461392825505951
 30
0.0
 11
-1.347632348327019
 21
-0.2447636781846625
 31
0.0
  0
LINE
  5
D5
330
1F
100
AcDbEntity
  8
0
100
AcDbLine
 10
-1.47033035100362
 20
-0.2192700024437046
 30
0.0
 11
-1.434080316701178
 21
-0.2374253415302251
 31
0.0
  0
LINE
  5
D6
330
1F
100
AcDbEntity
  8
0
100
AcDbLine
 10
-1.434080316701178
 20
-0.2374253415302251
 30
0.0
 11
-1.392189664756712
 21
-0.2461392825505951
 31
0.0
  0
LINE
  5
D7
330
1F
100
AcDbEntity
  8
0
100
AcDbLine
 10
-1.21280410576837
 20
-0.0094731118629262
 30
0.0
 11
-1.240960826061916
 21
0.0155979452658526
 31
0.0
  0
LINE
  5
D8
330
1F
100
AcDbEntity
  8
0
100
AcDbLine
 10
-1.240960826061916
 20
0.0155979452658526
 30
0.0
 11
-1.276585499546175
 21
0.0327678606503841
 31
0.0
  0
LINE
  5
D9
330
1F
100
AcDbEntity
  8
0
100
AcDbLine
 10
-1.186016902754511
 20
-0.0765080522620435
 30
0.0
 11
-1.194039164475045
 21
-0.0408524608085427
 31
0.0
  0
LINE
  5
DA
330
1F
100
AcDbEntity
  8
0
100
AcDbLine
 10
-1.189405232559865
 20
-0.1140787683375312
 30
0.0
 11
-1.186016902754511
 21
-0.0765080522620435
 31
0.0
  0
LINE
  5
DB
330
1F
100
AcDbEntity
  8
0
100
AcDbLine
 10
-1.194039164475045
 20
-0.0408524608085427
 30
0.0
 11
-1.21280410576837
 21
-0.0094731118629262
 31
0.0
  0
LINE
  5
DC
330
1F
100
AcDbEntity
  8
0
100
AcDbLine
 10
-1.276585499546175
 20
0.0327678606503841
 30
0.0
 11
-1.317312901250116
 21
0.040961420777084
 31
0.0
  0
LINE
  5
DD
330
1F
100
AcDbEntity
  8
0
100
AcDbLine
 10
-1.317312901250116
 20
0.040961420777084
 30
0.0
 11
-1.360480833872116
 21
0.0396699979695673
 31
0.0
  0
LINE
  5
DE
330
1F
100
AcDbEntity
  8
0
100
AcDbLine
 10
-1.360480833872116
 20
0.0396699979695673
 30
0.0
 11
-1.403282094255738
 21
0.0289735678885573
 31
0.0
  0
LINE
  5
DF
330
1F
100
AcDbEntity
  8
0
100
AcDbLine
 10
-1.403282094255738
 20
0.0289735678885573
 30
0.0
 11
-1.44292099951524
 21
0.0095372962847759
 31
0.0
  0
LINE
  5
E0
330
1F
100
AcDbEntity
  8
0
100
AcDbLine
 10
-1.523187443921411
 20
-0.1242424443639772
 30
0.0
 11
-1.516408123766235
 21
-0.1605639377603984
 31
0.0
  0
LINE
  5
E1
330
1F
100
AcDbEntity
  8
0
100
AcDbLine
 10
-1.5184100714921
 20
-0.0865875879011801
 30
0.0
 11
-1.523187443921411
 21
-0.1242424443639772
 31
0.0
  0
LINE
  5
E2
330
1F
100
AcDbEntity
  8
0
100
AcDbLine
 10
-1.502540186604945
 20
-0.0501702784423233
 30
0.0
 11
-1.5184100714921
 21
-0.0865875879011801
 31
0.0
  0
LINE
  5
E3
330
1F
100
AcDbEntity
  8
0
100
AcDbLine
 10
-1.476772391606835
 20
-0.0174175533221429
 30
0.0
 11
-1.502540186604945
 21
-0.0501702784423233
 31
0.0
  0
LINE
  5
E4
330
1F
100
AcDbEntity
  8
0
100
AcDbLine
 10
-1.44292099951524
 20
0.0095372962847759
 30
0.0
 11
-1.476772391606835
 21
-0.0174175533221429
 31
0.0
  0
LINE
  5
E5
330
1F
100
AcDbEntity
  8
0
100
AcDbLine
 10
-1.385772030150936
 20
0.6105117266928594
 30
0.0
 11
-1.425856189970721
 21
0.6011428240702043
 31
0.0
  0
LINE
  5
E6
330
1F
100
AcDbEntity
  8
0
100
AcDbLine
 10
-1.53378320747848
 20
0.500015720102775
 30
0.0
 11
-1.538309102769172
 21
0.4671003733815436
 31
0.0
  0
LINE
  5
E7
330
1F
100
AcDbEntity
  8
0
100
AcDbLine
 10
-1.416146090514645
 20
0.360668361671557
 30
0.0
 11
-1.374525513076426
 21
0.3618684067072398
 31
0.0
  0
LINE
  5
E8
330
1F
100
AcDbEntity
  8
0
100
AcDbLine
 10
-1.538309102769172
 20
0.4671003733815436
 30
0.0
 11
-1.532029858167615
 21
0.4353674307100233
 31
0.0
  0
LINE
  5
E9
330
1F
100
AcDbEntity
  8
0
100
AcDbLine
 10
-1.333352981891742
 20
0.3717817814856113
 30
0.0
 11
-1.295545601064458
 21
0.389676320926415
 31
0.0
  0
LINE
  5
EA
330
1F
100
AcDbEntity
  8
0
100
AcDbLine
 10
-1.273993423463995
 20
0.5894292697673382
 30
0.0
 11
-1.30727441756239
 21
0.6044660444924442
 31
0.0
  0
LINE
  5
EB
330
1F
100
AcDbEntity
  8
0
100
AcDbLine
 10
-1.455253468732619
 20
0.3682706001610766
 30
0.0
 11
-1.416146090514645
 21
0.360668361671557
 31
0.0
  0
LINE
  5
EC
330
1F
100
AcDbEntity
  8
0
100
AcDbLine
 10
-1.374525513076426
 20
0.3618684067072398
 30
0.0
 11
-1.333352981891742
 21
0.3717817814856113
 31
0.0
  0
LINE
  5
ED
330
1F
100
AcDbEntity
  8
0
100
AcDbLine
 10
-1.295545601064458
 20
0.389676320926415
 30
0.0
 11
-1.263746903991704
 21
0.4142424254158276
 31
0.0
  0
LINE
  5
EE
330
1F
100
AcDbEntity
  8
0
100
AcDbLine
 10
-1.515262310198721
 20
0.4070320376370885
 30
0.0
 11
-1.489078671783417
 21
0.3841127821445786
 31
0.0
  0
LINE
  5
EF
330
1F
100
AcDbEntity
  8
0
100
AcDbLine
 10
-1.263746903991704
 20
0.4142424254158276
 30
0.0
 11
-1.240128738836664
 21
0.4437073583618437
 31
0.0
  0
LINE
  5
F0
330
1F
100
AcDbEntity
  8
0
100
AcDbLine
 10
-1.230298875330467
 20
0.5400182593663126
 30
0.0
 11
-1.24773685512176
 21
0.5674796361313905
 31
0.0
  0
LINE
  5
F1
330
1F
100
AcDbEntity
  8
0
100
AcDbLine
 10
-1.222931387298787
 20
0.5088295954977895
 30
0.0
 11
-1.230298875330467
 21
0.5400182593663126
 31
0.0
  0
LINE
  5
F2
330
1F
100
AcDbEntity
  8
0
100
AcDbLine
 10
-1.532029858167615
 20
0.4353674307100233
 30
0.0
 11
-1.515262310198721
 21
0.4070320376370885
 31
0.0
  0
LINE
  5
F3
330
1F
100
AcDbEntity
  8
0
100
AcDbLine
 10
-1.24773685512176
 20
0.5674796361313905
 30
0.0
 11
-1.273993423463995
 21
0.5894292697673382
 31
0.0
  0
LINE
  5
F4
330
1F
100
AcDbEntity
  8
0
100
AcDbLine
 10
-1.518881801872415
 20
0.5318662337832565
 30
0.0
 11
-1.53378320747848
 21
0.500015720102775
 31
0.0
  0
LINE
  5
F5
330
1F
100
AcDbEntity
  8
0
100
AcDbLine
 10
-1.345366221452893
 20
0.6116429693211918
 30
0.0
 11
-1.385772030150936
 21
0.6105117266928594
 31
0.0
  0
LINE
  5
F6
330
1F
100
AcDbEntity
  8
0
100
AcDbLine
 10
-1.226242774671076
 20
0.4759830217671429
 30
0.0
 11
-1.222931387298787
 21
0.5088295954977895
 31
0.0
  0
LINE
  5
F7
330
1F
100
AcDbEntity
  8
0
100
AcDbLine
 10
-1.494719299830193
 20
0.5605259528235945
 30
0.0
 11
-1.518881801872415
 21
0.5318662337832565
 31
0.0
  0
LINE
  5
F8
330
1F
100
AcDbEntity
  8
0
100
AcDbLine
 10
-1.462993271862599
 20
0.5841224648732095
 30
0.0
 11
-1.494719299830193
 21
0.5605259528235945
 31
0.0
  0
LINE
  5
F9
330
1F
100
AcDbEntity
  8
0
100
AcDbLine
 10
-1.30727441756239
 20
0.6044660444924442
 30
0.0
 11
-1.345366221452893
 21
0.6116429693211918
 31
0.0
  0
LINE
  5
FA
330
1F
100
AcDbEntity
  8
0
100
AcDbLine
 10
-1.240128738836664
 20
0.4437073583618437
 30
0.0
 11
-1.226242774671076
 21
0.4759830217671429
 31
0.0
  0
LINE
  5
FB
330
1F
100
AcDbEntity
  8
0
100
AcDbLine
 10
-1.425856189970721
 20
0.6011428240702043
 30
0.0
 11
-1.462993271862599
 21
0.5841224648732095
 31
0.0
  0
LINE
  5
FC
330
1F
100
AcDbEntity
  8
0
100
AcDbLine
 10
-1.489078671783417
 20
0.3841127821445786
 30
0.0
 11
-1.455253468732619
 21
0.3682706001610766
 31
0.0
  0
LINE
  5
FD
330
1F
100
AcDbEntity
  8
0
100
AcDbLine
 10
-0.9884205093390112
 20
0.8928144428292358
 30
0.0
 11
-0.9593158304745832
 21
0.914580931913044
 31
0.0
  0
LINE
  5
FE
330
1F
100
AcDbEntity
  8
0
100
AcDbLine
 10
-1.195832325484707
 20
0.9081914965534231
 30
0.0
 11
-1.170382122784968
 21
0.8878859590187057
 31
0.0
  0
LINE
  5
FF
330
1F
100
AcDbEntity
  8
0
100
AcDbLine
 10
-1.170382122784968
 20
0.8878859590187057
 30
0.0
 11
-1.137995211605751
 21
0.8738541595369943
 31
0.0
  0
LINE
  5
100
330
1F
100
AcDbEntity
  8
0
100
AcDbLine
 10
-1.203640577751986
 20
1.018901908689108
 30
0.0
 11
-1.216553028046125
 21
0.9906369207077941
 31
0.0
  0
LINE
  5
101
330
1F
100
AcDbEntity
  8
0
100
AcDbLine
 10
-1.137995211605751
 20
0.8738541595369943
 30
0.0
 11
-1.100929534077801
 21
0.8671217590617032
 31
0.0
  0
LINE
  5
102
330
1F
100
AcDbEntity
  8
0
100
AcDbLine
 10
-1.216553028046125
 20
0.9906369207077941
 30
0.0
 11
-1.219651286043774
 21
0.961439971501731
 31
0.0
  0
LINE
  5
103
330
1F
100
AcDbEntity
  8
0
100
AcDbLine
 10
-1.212616827330191
 20
0.9333043536677434
 30
0.0
 11
-1.195832325484707
 21
0.9081914965534231
 31
0.0
  0
LINE
  5
104
330
1F
100
AcDbEntity
  8
0
100
AcDbLine
 10
-1.181883208125394
 20
1.044345883213826
 30
0.0
 11
-1.203640577751986
 21
1.018901908689108
 31
0.0
  0
LINE
  5
105
330
1F
100
AcDbEntity
  8
0
100
AcDbLine
 10
-1.061804500508016
 20
0.8681844498212471
 30
0.0
 11
-1.023396771303089
 21
0.8769638334688381
 31
0.0
  0
LINE
  5
106
330
1F
100
AcDbEntity
  8
0
100
AcDbLine
 10
-1.219651286043774
 20
0.961439971501731
 30
0.0
 11
-1.212616827330191
 21
0.9333043536677434
 31
0.0
  0
LINE
  5
107
330
1F
100
AcDbEntity
  8
0
100
AcDbLine
 10
-0.9380673869669907
 20
0.9406976580442359
 30
0.0
 11
-0.9260694781122841
 21
0.9693178591019246
 31
0.0
  0
LINE
  5
108
330
1F
100
AcDbEntity
  8
0
100
AcDbLine
 10
-0.9593158304745832
 20
0.914580931913044
 30
0.0
 11
-0.9380673869669907
 21
0.9406976580442359
 31
0.0
  0
LINE
  5
109
330
1F
100
AcDbEntity
  8
0
100
AcDbLine
 10
-0.9260694781122841
 20
0.9693178591019246
 30
0.0
 11
-0.9240463662309053
 21
0.9984573482598588
 31
0.0
  0
LINE
  5
10A
330
1F
100
AcDbEntity
  8
0
100
AcDbLine
 10
-1.023396771303089
 20
0.8769638334688381
 30
0.0
 11
-0.9884205093390112
 21
0.8928144428292358
 31
0.0
  0
LINE
  5
10B
330
1F
100
AcDbEntity
  8
0
100
AcDbLine
 10
-1.100929534077801
 20
0.8671217590617032
 30
0.0
 11
-1.061804500508016
 21
0.8681844498212471
 31
0.0
  0
LINE
  5
10C
330
1F
100
AcDbEntity
  8
0
100
AcDbLine
 10
-1.042892096660627
 20
1.089752251848961
 30
0.0
 11
-1.080941779717763
 21
1.088747042939364
 31
0.0
  0
LINE
  5
10D
330
1F
100
AcDbEntity
  8
0
100
AcDbLine
 10
-0.9748629896681613
 20
1.070016281374234
 30
0.0
 11
-1.006741069848431
 21
1.08337518594885
 31
0.0
  0
LINE
  5
10E
330
1F
100
AcDbEntity
  8
0
100
AcDbLine
 10
-1.006741069848431
 20
1.08337518594885
 30
0.0
 11
-1.042892096660627
 21
1.089752251848961
 31
0.0
  0
LINE
  5
10F
330
1F
100
AcDbEntity
  8
0
100
AcDbLine
 10
-0.9493794922239192
 20
1.050520844977951
 30
0.0
 11
-0.9748629896681613
 21
1.070016281374234
 31
0.0
  0
LINE
  5
110
330
1F
100
AcDbEntity
  8
0
100
AcDbLine
 10
-1.080941779717763
 20
1.088747042939364
 30
0.0
 11
-1.118401672741115
 21
1.080422547369591
 31
0.0
  0
LINE
  5
111
330
1F
100
AcDbEntity
  8
0
100
AcDbLine
 10
-0.9320285660060118
 20
1.026138221316651
 30
0.0
 11
-0.9493794922239192
 21
1.050520844977951
 31
0.0
  0
LINE
  5
112
330
1F
100
AcDbEntity
  8
0
100
AcDbLine
 10
-1.118401672741115
 20
1.080422547369591
 30
0.0
 11
-1.152811619609095
 21
1.065302292961019
 31
0.0
  0
LINE
  5
113
330
1F
100
AcDbEntity
  8
0
100
AcDbLine
 10
-0.9240463662309053
 20
0.9984573482598588
 30
0.0
 11
-0.9320285660060118
 21
1.026138221316651
 31
0.0
  0
LINE
  5
114
330
1F
100
AcDbEntity
  8
0
100
AcDbLine
 10
-1.152811619609095
 20
1.065302292961019
 30
0.0
 11
-1.181883208125394
 21
1.044345883213826
 31
0.0
  0
LINE
  5
115
330
1F
100
AcDbEntity
  8
0
100
AcDbLine
 10
-0.4060215440421256
 20
1.299743764219145
 30
0.0
 11
-0.4154377588908502
 21
1.325369783058624
 31
0.0
  0
LINE
  5
116
330
1F
100
AcDbEntity
  8
0
100
AcDbLine
 10
-0.6039338820697095
 20
1.184474016266144
 30
0.0
 11
-0.567867029994151
 21
1.178249804842251
 31
0.0
  0
LINE
  5
117
330
1F
100
AcDbEntity
  8
0
100
AcDbLine
 10
-0.4594165395526406
 20
1.366004471575212
 30
0.0
 11
-0.4909401747404478
 21
1.378379291343562
 31
0.0
  0
LINE
  5
118
330
1F
100
AcDbEntity
  8
0
100
AcDbLine
 10
-0.5303154341755063
 20
1.179232252833202
 30
0.0
 11
-0.4939398350013747
 21
1.187349094118552
 31
0.0
  0
LINE
  5
119
330
1F
100
AcDbEntity
  8
0
100
AcDbLine
 10
-0.6617392709308126
 20
1.216225642891628
 30
0.0
 11
-0.6359694413264816
 21
1.197447921561851
 31
0.0
  0
LINE
  5
11A
330
1F
100
AcDbEntity
  8
0
100
AcDbLine
 10
-0.4061412673379162
 20
1.272774713009601
 30
0.0
 11
-0.4060215440421256
 21
1.299743764219145
 31
0.0
  0
LINE
  5
11B
330
1F
100
AcDbEntity
  8
0
100
AcDbLine
 10
-0.4158876530525321
 20
1.246293561717346
 30
0.0
 11
-0.4061412673379162
 21
1.272774713009601
 31
0.0
  0
LINE
  5
11C
330
1F
100
AcDbEntity
  8
0
100
AcDbLine
 10
-0.6880539045654901
 20
1.265484891559977
 30
0.0
 11
-0.6794870873689705
 21
1.239454000618905
 31
0.0
  0
LINE
  5
11D
330
1F
100
AcDbEntity
  8
0
100
AcDbLine
 10
-0.4613057558736437
 20
1.202005245671223
 30
0.0
 11
-0.4346849100318188
 21
1.222135080005107
 31
0.0
  0
LINE
  5
11E
330
1F
100
AcDbEntity
  8
0
100
AcDbLine
 10
-0.56269878517357
 20
1.383355874515534
 30
0.0
 11
-0.5982249133077758
 21
1.375644023406661
 31
0.0
  0
LINE
  5
11F
330
1F
100
AcDbEntity
  8
0
100
AcDbLine
 10
-0.6570189779430188
 20
1.342229510207532
 30
0.0
 11
-0.6763282323789914
 21
1.318669995947763
 31
0.0
  0
LINE
  5
120
330
1F
100
AcDbEntity
  8
0
100
AcDbLine
 10
-0.4154377588908502
 20
1.325369783058624
 30
0.0
 11
-0.4336652768869055
 21
1.347947996947981
 31
0.0
  0
LINE
  5
121
330
1F
100
AcDbEntity
  8
0
100
AcDbLine
 10
-0.6869426560748235
 20
1.292505101193596
 30
0.0
 11
-0.6880539045654901
 21
1.265484891559977
 31
0.0
  0
LINE
  5
122
330
1F
100
AcDbEntity
  8
0
100
AcDbLine
 10
-0.6794870873689705
 20
1.239454000618905
 30
0.0
 11
-0.6617392709308126
 21
1.216225642891628
 31
0.0
  0
LINE
  5
123
330
1F
100
AcDbEntity
  8
0
100
AcDbLine
 10
-0.4939398350013747
 20
1.187349094118552
 30
0.0
 11
-0.4613057558736437
 21
1.202005245671223
 31
0.0
  0
LINE
  5
124
330
1F
100
AcDbEntity
  8
0
100
AcDbLine
 10
-0.4336652768869055
 20
1.347947996947981
 30
0.0
 11
-0.4594165395526406
 21
1.366004471575212
 31
0.0
  0
LINE
  5
125
330
1F
100
AcDbEntity
  8
0
100
AcDbLine
 10
-0.567867029994151
 20
1.178249804842251
 30
0.0
 11
-0.5303154341755063
 21
1.179232252833202
 31
0.0
  0
LINE
  5
126
330
1F
100
AcDbEntity
  8
0
100
AcDbLine
 10
-0.6763282323789914
 20
1.318669995947763
 30
0.0
 11
-0.6869426560748235
 21
1.292505101193596
 31
0.0
  0
LINE
  5
127
330
1F
100
AcDbEntity
  8
0
100
AcDbLine
 10
-0.4909401747404478
 20
1.378379291343562
 30
0.0
 11
-0.5261388883861561
 21
1.384287146118445
 31
0.0
  0
LINE
  5
128
330
1F
100
AcDbEntity
  8
0
100
AcDbLine
 10
-0.5982249133077758
 20
1.375644023406661
 30
0.0
 11
-0.6303793913262429
 21
1.361638115802831
 31
0.0
  0
LINE
  5
129
330
1F
100
AcDbEntity
  8
0
100
AcDbLine
 10
-0.6303793913262429
 20
1.361638115802831
 30
0.0
 11
-0.6570189779430188
 21
1.342229510207532
 31
0.0
  0
LINE
  5
12A
330
1F
100
AcDbEntity
  8
0
100
AcDbLine
 10
-0.6359694413264816
 20
1.197447921561851
 30
0.0
 11
-0.6039338820697095
 21
1.184474016266144
 31
0.0
  0
LINE
  5
12B
330
1F
100
AcDbEntity
  8
0
100
AcDbLine
 10
-0.4346849100318188
 20
1.222135080005107
 30
0.0
 11
-0.4158876530525321
 21
1.246293561717346
 31
0.0
  0
LINE
  5
12C
330
1F
100
AcDbEntity
  8
0
100
AcDbLine
 10
-0.5261388883861561
 20
1.384287146118445
 30
0.0
 11
-0.56269878517357
 21
1.383355874515534
 31
0.0
  0
LINE
  5
12D
330
1F
100
AcDbEntity
  8
0
100
AcDbLine
 10
-0.0599761689494467
 20
1.39271230436682
 30
0.0
 11
-0.0683942567331446
 21
1.367053604046313
 31
0.0
  0
LINE
  5
12E
330
1F
100
AcDbEntity
  8
0
100
AcDbLine
 10
0.0835186959475157
 20
1.457067515902025
 30
0.0
 11
0.0473849280064516
 21
1.45615407922152
 31
0.0
  0
LINE
  5
12F
330
1F
100
AcDbEntity
  8
0
100
AcDbLine
 10
0.1311154126766723
 20
1.263949198485511
 30
0.0
 11
0.1622593388545794
 21
1.278317753713339
 31
0.0
  0
LINE
  5
130
330
1F
100
AcDbEntity
  8
0
100
AcDbLine
 10
0.0224365803249341
 20
1.261130600857712
 30
0.0
 11
0.0586442280256034
 21
1.255028733196869
 31
0.0
  0
LINE
  5
131
330
1F
100
AcDbEntity
  8
0
100
AcDbLine
 10
0.01281689267807
 20
1.448590002085073
 30
0.0
 11
-0.0179081372074904
 21
1.434852854197881
 31
0.0
  0
LINE
  5
132
330
1F
100
AcDbEntity
  8
0
100
AcDbLine
 10
0.1510568232045542
 20
1.439135371353252
 30
0.0
 11
0.1188500460309614
 21
1.451272840020159
 31
0.0
  0
LINE
  5
133
330
1F
100
AcDbEntity
  8
0
100
AcDbLine
 10
0.1978488914911334
 20
1.399282749865916
 30
0.0
 11
0.1779987776869172
 21
1.421425908359699
 31
0.0
  0
LINE
  5
134
330
1F
100
AcDbEntity
  8
0
100
AcDbLine
 10
0.2092150026990514
 20
1.374152054717717
 30
0.0
 11
0.1978488914911334
 21
1.399282749865916
 31
0.0
  0
LINE
  5
135
330
1F
100
AcDbEntity
  8
0
100
AcDbLine
 10
0.1779987776869172
 20
1.421425908359699
 30
0.0
 11
0.1510568232045542
 21
1.439135371353252
 31
0.0
  0
LINE
  5
136
330
1F
100
AcDbEntity
  8
0
100
AcDbLine
 10
-0.0103195427132021
 20
1.273849800184272
 30
0.0
 11
0.0224365803249341
 21
1.261130600857712
 31
0.0
  0
LINE
  5
137
330
1F
100
AcDbEntity
  8
0
100
AcDbLine
 10
0.0586442280256034
 20
1.255028733196869
 30
0.0
 11
0.0957464039017731
 21
1.255991863665878
 31
0.0
  0
LINE
  5
138
330
1F
100
AcDbEntity
  8
0
100
AcDbLine
 10
0.0473849280064516
 20
1.45615407922152
 30
0.0
 11
0.01281689267807
 21
1.448590002085073
 31
0.0
  0
LINE
  5
139
330
1F
100
AcDbEntity
  8
0
100
AcDbLine
 10
-0.04273841105633
 20
1.415817489817678
 30
0.0
 11
-0.0599761689494467
 21
1.39271230436682
 31
0.0
  0
LINE
  5
13A
330
1F
100
AcDbEntity
  8
0
100
AcDbLine
 10
-0.0683942567331446
 20
1.367053604046313
 30
0.0
 11
-0.067333029355447
 21
1.340557928215679
 31
0.0
  0
LINE
  5
13B
330
1F
100
AcDbEntity
  8
0
100
AcDbLine
 10
-0.0179081372074904
 20
1.434852854197881
 30
0.0
 11
-0.04273841105633
 21
1.415817489817678
 31
0.0
  0
LINE
  5
13C
330
1F
100
AcDbEntity
  8
0
100
AcDbLine
 10
0.1622593388545794
 20
1.278317753713339
 30
0.0
 11
0.1870142271212373
 21
1.298053455114784
 31
0.0
  0
LINE
  5
13D
330
1F
100
AcDbEntity
  8
0
100
AcDbLine
 10
0.2037025777348797
 20
1.321740258795598
 30
0.0
 11
0.2112444722491386
 21
1.347706055570484
 31
0.0
  0
LINE
  5
13E
330
1F
100
AcDbEntity
  8
0
100
AcDbLine
 10
0.1870142271212373
 20
1.298053455114784
 30
0.0
 11
0.2037025777348797
 21
1.321740258795598
 31
0.0
  0
LINE
  5
13F
330
1F
100
AcDbEntity
  8
0
100
AcDbLine
 10
0.2112444722491386
 20
1.347706055570484
 30
0.0
 11
0.2092150026990514
 21
1.374152054717717
 31
0.0
  0
LINE
  5
140
330
1F
100
AcDbEntity
  8
0
100
AcDbLine
 10
0.1188500460309614
 20
1.451272840020159
 30
0.0
 11
0.0835186959475157
 21
1.457067515902025
 31
0.0
  0
LINE
  5
141
330
1F
100
AcDbEntity
  8
0
100
AcDbLine
 10
-0.067333029355447
 20
1.340557928215679
 30
0.0
 11
-0.0567678301791167
 21
1.315034087813994
 31
0.0
  0
LINE
  5
142
330
1F
100
AcDbEntity
  8
0
100
AcDbLine
 10
-0.0373367170150323
 20
1.29225961730417
 30
0.0
 11
-0.0103195427132021
 21
1.273849800184272
 31
0.0
  0
LINE
  5
143
330
1F
100
AcDbEntity
  8
0
100
AcDbLine
 10
0.0957464039017731
 20
1.255991863665878
 30
0.0
 11
0.1311154126766723
 21
1.263949198485511
 31
0.0
  0
LINE
  5
144
330
1F
100
AcDbEntity
  8
0
100
AcDbLine
 10
-0.0567678301791167
 20
1.315034087813994
 30
0.0
 11
-0.0373367170150323
 21
1.29225961730417
 31
0.0
  0
LINE
  5
145
330
1F
100
AcDbEntity
  8
0
100
AcDbLine
 10
0.5611391805489904
 20
1.128806508566588
 30
0.0
 11
0.5902043409900065
 21
1.109601284638127
 31
0.0
  0
LINE
  5
146
330
1F
100
AcDbEntity
  8
0
100
AcDbLine
 10
0.5266513039607958
 20
1.179182205760755
 30
0.0
 11
0.5394764497434379
 21
1.152562235231466
 31
0.0
  0
LINE
  5
147
330
1F
100
AcDbEntity
  8
0
100
AcDbLine
 10
0.7661172432966367
 20
1.114262459880302
 30
0.0
 11
0.7898133620367566
 21
1.134850264610115
 31
0.0
  0
LINE
  5
148
330
1F
100
AcDbEntity
  8
0
100
AcDbLine
 10
0.545763359337423
 20
1.257651766146906
 30
0.0
 11
0.5300056075633727
 21
1.233564591975601
 31
0.0
  0
LINE
  5
149
330
1F
100
AcDbEntity
  8
0
100
AcDbLine
 10
0.741754941261809
 20
1.281957530953308
 30
0.0
 11
0.7079005250352004
 21
1.294607964368291
 31
0.0
  0
LINE
  5
14A
330
1F
100
AcDbEntity
  8
0
100
AcDbLine
 10
0.699972814844277
 20
1.090969901580478
 30
0.0
 11
0.7354613421843338
 21
1.099272106369503
 31
0.0
  0
LINE
  5
14B
330
1F
100
AcDbEntity
  8
0
100
AcDbLine
 10
0.5234553822460197
 20
1.206811740341996
 30
0.0
 11
0.5266513039607958
 21
1.179182205760755
 31
0.0
  0
LINE
  5
14C
330
1F
100
AcDbEntity
  8
0
100
AcDbLine
 10
0.6246791928608421
 20
1.096331393185584
 30
0.0
 11
0.6621519135755513
 21
1.089965004152497
 31
0.0
  0
LINE
  5
14D
330
1F
100
AcDbEntity
  8
0
100
AcDbLine
 10
0.7079005250352004
 20
1.294607964368291
 30
0.0
 11
0.6713667214193071
 21
1.300647238283842
 31
0.0
  0
LINE
  5
14E
330
1F
100
AcDbEntity
  8
0
100
AcDbLine
 10
0.5998661303673501
 20
1.291811815575286
 30
0.0
 11
0.5695953867690301
 21
1.277493817890525
 31
0.0
  0
LINE
  5
14F
330
1F
100
AcDbEntity
  8
0
100
AcDbLine
 10
0.5902043409900065
 20
1.109601284638127
 30
0.0
 11
0.6246791928608421
 21
1.096331393185584
 31
0.0
  0
LINE
  5
150
330
1F
100
AcDbEntity
  8
0
100
AcDbLine
 10
0.7898133620367566
 20
1.134850264610115
 30
0.0
 11
0.8049506209762917
 21
1.159556771976975
 31
0.0
  0
LINE
  5
151
330
1F
100
AcDbEntity
  8
0
100
AcDbLine
 10
0.6621519135755513
 20
1.089965004152497
 30
0.0
 11
0.699972814844277
 21
1.090969901580478
 31
0.0
  0
LINE
  5
152
330
1F
100
AcDbEntity
  8
0
100
AcDbLine
 10
0.5394764497434379
 20
1.152562235231466
 30
0.0
 11
0.5611391805489904
 21
1.128806508566588
 31
0.0
  0
LINE
  5
153
330
1F
100
AcDbEntity
  8
0
100
AcDbLine
 10
0.7354613421843338
 20
1.099272106369503
 30
0.0
 11
0.7661172432966367
 21
1.114262459880302
 31
0.0
  0
LINE
  5
154
330
1F
100
AcDbEntity
  8
0
100
AcDbLine
 10
0.5695953867690301
 20
1.277493817890525
 30
0.0
 11
0.545763359337423
 21
1.257651766146906
 31
0.0
  0
LINE
  5
155
330
1F
100
AcDbEntity
  8
0
100
AcDbLine
 10
0.5300056075633727
 20
1.233564591975601
 30
0.0
 11
0.5234553822460197
 21
1.206811740341996
 31
0.0
  0
LINE
  5
156
330
1F
100
AcDbEntity
  8
0
100
AcDbLine
 10
0.6713667214193071
 20
1.300647238283842
 30
0.0
 11
0.6345515921147058
 21
1.299695257640658
 31
0.0
  0
LINE
  5
157
330
1F
100
AcDbEntity
  8
0
100
AcDbLine
 10
0.6345515921147058
 20
1.299695257640658
 30
0.0
 11
0.5998661303673501
 21
1.291811815575286
 31
0.0
  0
LINE
  5
158
330
1F
100
AcDbEntity
  8
0
100
AcDbLine
 10
0.8049506209762917
 20
1.159556771976975
 30
0.0
 11
0.810562050793095
 21
1.18663663287963
 31
0.0
  0
LINE
  5
159
330
1F
100
AcDbEntity
  8
0
100
AcDbLine
 10
0.810562050793095
 20
1.18663663287963
 30
0.0
 11
0.806360535902748
 21
1.214213269669588
 31
0.0
  0
LINE
  5
15A
330
1F
100
AcDbEntity
  8
0
100
AcDbLine
 10
0.806360535902748
 20
1.214213269669588
 30
0.0
 11
0.7927323817176921
 21
1.240414602317228
 31
0.0
  0
LINE
  5
15B
330
1F
100
AcDbEntity
  8
0
100
AcDbLine
 10
0.7927323817176921
 20
1.240414602317228
 30
0.0
 11
0.7706843717998909
 21
1.263498079004557
 31
0.0
  0
LINE
  5
15C
330
1F
100
AcDbEntity
  8
0
100
AcDbLine
 10
0.7706843717998909
 20
1.263498079004557
 30
0.0
 11
0.741754941261809
 21
1.281957530953308
 31
0.0
  0
LINE
  5
15D
330
1F
100
AcDbEntity
  8
0
100
AcDbLine
 10
1.124177626958347
 20
0.7001978685567329
 30
0.0
 11
1.163812033417785
 21
0.7013049085398815
 31
0.0
  0
LINE
  5
15E
330
1F
100
AcDbEntity
  8
0
100
AcDbLine
 10
1.163812033417785
 20
0.7013049085398815
 30
0.0
 11
1.200544116816363
 21
0.7104504517494498
 31
0.0
  0
LINE
  5
15F
330
1F
100
AcDbEntity
  8
0
100
AcDbLine
 10
1.200544116816363
 20
0.7104504517494498
 30
0.0
 11
1.231783413559359
 21
0.7269610992154844
 31
0.0
  0
LINE
  5
160
330
1F
100
AcDbEntity
  8
0
100
AcDbLine
 10
1.267758931421135
 20
0.8369689430301548
 30
0.0
 11
1.251829470465424
 21
0.8657837127454373
 31
0.0
  0
LINE
  5
161
330
1F
100
AcDbEntity
  8
0
100
AcDbLine
 10
1.046446510122076
 20
0.922279866679525
 30
0.0
 11
1.015587466936871
 21
0.906545108173857
 31
0.0
  0
LINE
  5
162
330
1F
100
AcDbEntity
  8
0
100
AcDbLine
 10
1.015587466936871
 20
0.906545108173857
 30
0.0
 11
0.991809411880876
 21
0.884734996588606
 31
0.0
  0
LINE
  5
163
330
1F
100
AcDbEntity
  8
0
100
AcDbLine
 10
0.991809411880876
 20
0.884734996588606
 30
0.0
 11
0.9767499957356219
 21
0.8582513711603083
 31
0.0
  0
LINE
  5
164
330
1F
100
AcDbEntity
  8
0
100
AcDbLine
 10
1.195794719106798
 20
0.9114508087619411
 30
0.0
 11
1.159521775761586
 21
0.9253523619573286
 31
0.0
  0
LINE
  5
165
330
1F
100
AcDbEntity
  8
0
100
AcDbLine
 10
1.251829470465424
 20
0.8657837127454373
 30
0.0
 11
1.227271869392468
 21
0.8911617506021023
 31
0.0
  0
LINE
  5
166
330
1F
100
AcDbEntity
  8
0
100
AcDbLine
 10
1.159521775761586
 20
0.9253523619573286
 30
0.0
 11
1.120853446309535
 21
0.9319881344750502
 31
0.0
  0
LINE
  5
167
330
1F
100
AcDbEntity
  8
0
100
AcDbLine
 10
1.047459567613024
 20
0.7218275308093949
 30
0.0
 11
1.084455159026952
 21
0.7072111303616601
 31
0.0
  0
LINE
  5
168
330
1F
100
AcDbEntity
  8
0
100
AcDbLine
 10
1.082322156552642
 20
0.9309421603176351
 30
0.0
 11
1.046446510122076
 21
0.922279866679525
 31
0.0
  0
LINE
  5
169
330
1F
100
AcDbEntity
  8
0
100
AcDbLine
 10
1.120853446309535
 20
0.9319881344750502
 30
0.0
 11
1.082322156552642
 21
0.9309421603176351
 31
0.0
  0
LINE
  5
16A
330
1F
100
AcDbEntity
  8
0
100
AcDbLine
 10
1.255363706771223
 20
0.7496317911442654
 30
0.0
 11
1.269700414507396
 21
0.7768301053279254
 31
0.0
  0
LINE
  5
16B
330
1F
100
AcDbEntity
  8
0
100
AcDbLine
 10
1.227271869392468
 20
0.8911617506021023
 30
0.0
 11
1.195794719106798
 21
0.9114508087619411
 31
0.0
  0
LINE
  5
16C
330
1F
100
AcDbEntity
  8
0
100
AcDbLine
 10
1.015784870536361
 20
0.742977193426562
 30
0.0
 11
1.047459567613024
 21
0.7218275308093949
 31
0.0
  0
LINE
  5
16D
330
1F
100
AcDbEntity
  8
0
100
AcDbLine
 10
1.273891723688828
 20
0.8066314039091586
 30
0.0
 11
1.267758931421135
 21
0.8369689430301548
 31
0.0
  0
LINE
  5
16E
330
1F
100
AcDbEntity
  8
0
100
AcDbLine
 10
1.269700414507396
 20
0.7768301053279254
 30
0.0
 11
1.273891723688828
 21
0.8066314039091586
 31
0.0
  0
LINE
  5
16F
330
1F
100
AcDbEntity
  8
0
100
AcDbLine
 10
1.231783413559359
 20
0.7269610992154844
 30
0.0
 11
1.255363706771223
 21
0.7496317911442654
 31
0.0
  0
LINE
  5
170
330
1F
100
AcDbEntity
  8
0
100
AcDbLine
 10
0.9767499957356219
 20
0.8582513711603083
 30
0.0
 11
0.9715047027876225
 21
0.8288274274830928
 31
0.0
  0
LINE
  5
171
330
1F
100
AcDbEntity
  8
0
100
AcDbLine
 10
0.9765345934059109
 20
0.7984288466501629
 30
0.0
 11
0.9916076777339722
 21
0.7691309858604077
 31
0.0
  0
LINE
  5
172
330
1F
100
AcDbEntity
  8
0
100
AcDbLine
 10
0.9715047027876225
 20
0.8288274274830928
 30
0.0
 11
0.9765345934059109
 21
0.7984288466501629
 31
0.0
  0
LINE
  5
173
330
1F
100
AcDbEntity
  8
0
100
AcDbLine
 10
0.9916076777339722
 20
0.7691309858604077
 30
0.0
 11
1.015784870536361
 21
0.742977193426562
 31
0.0
  0
LINE
  5
174
330
1F
100
AcDbEntity
  8
0
100
AcDbLine
 10
1.084455159026952
 20
0.7072111303616601
 30
0.0
 11
1.124177626958347
 21
0.7001978685567329
 31
0.0
  0
LINE
  5
175
330
1F
100
AcDbEntity
  8
0
100
AcDbLine
 10
1.682082948576716
 20
0.2479058515666122
 30
0.0
 11
1.671715073606128
 21
0.3373754680842049
 31
0.0
  0
LINE
  5
176
330
1F
100
AcDbEntity
  8
0
100
AcDbLine
 10
1.671715073606128
 20
0.3373754680842049
 30
0.0
 11
1.654798255999301
 21
0.4252021232538376
 31
0.0
  0
LINE
  5
177
330
1F
100
AcDbEntity
  8
0
100
AcDbLine
 10
1.654798255999301
 20
0.4252021232538376
 30
0.0
 11
1.631596383600345
 21
0.5110939377767325
 31
0.0
  0
LINE
  5
178
330
1F
100
AcDbEntity
  8
0
100
AcDbLine
 10
1.631596383600345
 20
0.5110939377767325
 30
0.0
 11
1.602384839635468
 21
0.5947847795694683
 31
0.0
  0
LINE
  5
179
330
1F
100
AcDbEntity
  8
0
100
AcDbLine
 10
1.602384839635468
 20
0.5947847795694683
 30
0.0
 11
1.567447313103517
 21
0.6760333300799674
 31
0.0
  0
LINE
  5
17A
330
1F
100
AcDbEntity
  8
0
100
AcDbLine
 10
1.567447313103517
 20
0.6760333300799674
 30
0.0
 11
1.527072962329883
 21
0.7546219536941439
 31
0.0
  0
LINE
  5
17B
330
1F
100
AcDbEntity
  8
0
100
AcDbLine
 10
1.527072962329883
 20
0.7546219536941439
 30
0.0
 11
1.481553929710946
 21
0.8303554193561868
 31
0.0
  0
LINE
  5
17C
330
1F
100
AcDbEntity
  8
0
100
AcDbLine
 10
1.481553929710946
 20
0.8303554193561868
 30
0.0
 11
1.431183198652269
 21
0.9030595185423578
 31
0.0
  0
LINE
  5
17D
330
1F
100
AcDbEntity
  8
0
100
AcDbLine
 10
1.431183198652269
 20
0.9030595185423578
 30
0.0
 11
1.376252778280535
 21
0.97257961852422
 31
0.0
  0
LINE
  5
17E
330
1F
100
AcDbEntity
  8
0
100
AcDbLine
 10
1.376252778280535
 20
0.97257961852422
 30
0.0
 11
1.317052197529081
 21
1.038779184656397
 31
0.0
  0
LINE
  5
17F
330
1F
100
AcDbEntity
  8
0
100
AcDbLine
 10
1.317052197529081
 20
1.038779184656397
 30
0.0
 11
1.253867287480484
 21
1.10153830039903
 31
0.0
  0
LINE
  5
180
330
1F
100
AcDbEntity
  8
0
100
AcDbLine
 10
1.253867287480484
 20
1.10153830039903
 30
0.0
 11
1.186979229209833
 21
1.16075220906242
 31
0.0
  0
LINE
  5
181
330
1F
100
AcDbEntity
  8
0
100
AcDbLine
 10
1.186979229209833
 20
1.16075220906242
 30
0.0
 11
1.116663843624335
 21
1.216329896926684
 31
0.0
  0
LINE
  5
182
330
1F
100
AcDbEntity
  8
0
100
AcDbLine
 10
1.116663843624335
 20
1.216329896926684
 30
0.0
 11
1.043191099763894
 21
1.268192733494424
 31
0.0
  0
LINE
  5
183
330
1F
100
AcDbEntity
  8
0
100
AcDbLine
 10
1.043191099763894
 20
1.268192733494424
 30
0.0
 11
0.9668248185530067
 21
1.316273181203564
 31
0.0
  0
LINE
  5
184
330
1F
100
AcDbEntity
  8
0
100
AcDbLine
 10
0.9668248185530067
 20
1.316273181203564
 30
0.0
 11
0.8878225499342225
 21
1.360513583963323
 31
0.0
  0
LINE
  5
185
330
1F
100
AcDbEntity
  8
0
100
AcDbLine
 10
0.8878225499342225
 20
1.360513583963323
 30
0.0
 11
0.8064356025432518
 21
1.400865041365096
 31
0.0
  0
LINE
  5
186
330
1F
100
AcDbEntity
  8
0
100
AcDbLine
 10
0.8064356025432518
 20
1.400865041365096
 30
0.0
 11
0.7229092065004041
 21
1.437286373336903
 31
0.0
  0
LINE
  5
187
330
1F
100
AcDbEntity
  8
0
100
AcDbLine
 10
0.7229092065004041
 20
1.437286373336903
 30
0.0
 11
0.6374827914043466
 21
1.469743178322235
 31
0.0
  0
LINE
  5
188
330
1F
100
AcDbEntity
  8
0
100
AcDbLine
 10
0.6374827914043466
 20
1.469743178322235
 30
0.0
 11
0.5503903631506877
 21
1.498206986734562
 31
0.0
  0
LINE
  5
189
330
1F
100
AcDbEntity
  8
0
100
AcDbLine
 10
0.5503903631506877
 20
1.498206986734562
 30
0.0
 11
0.4618609647021928
 21
1.522654510427988
 31
0.0
  0
LINE
  5
18A
330
1F
100
AcDbEntity
  8
0
100
AcDbLine
 10
0.4618609647021928
 20
1.522654510427988
 30
0.0
 11
0.3721192073645853
 21
1.543066988193232
 31
0.0
  0
LINE
  5
18B
330
1F
100
AcDbEntity
  8
0
100
AcDbLine
 10
0.3721192073645853
 20
1.543066988193232
 30
0.0
 11
0.2813858604373352
 21
1.559429626797399
 31
0.0
  0
LINE
  5
18C
330
1F
100
AcDbEntity
  8
0
100
AcDbLine
 10
0.2813858604373352
 20
1.559429626797399
 30
0.0
 11
0.189878488286643
 21
1.571731136799102
 31
0.0
  0
LINE
  5
18D
330
1F
100
AcDbEntity
  8
0
100
AcDbLine
 10
0.189878488286643
 20
1.571731136799102
 30
0.0
 11
0.0978121249089146
 21
1.579963362252629
 31
0.0
  0
LINE
  5
18E
330
1F
100
AcDbEntity
  8
0
100
AcDbLine
 10
0.0978121249089146
 20
1.579963362252629
 30
0.0
 11
0.005399976903766
 21
1.584121003433533
 31
0.0
  0
LINE
  5
18F
330
1F
100
AcDbEntity
  8
0
100
AcDbLine
 10
0.005399976903766
 20
1.584121003433533
 30
0.0
 11
-0.0871458535534875
 21
1.584201431842982
 31
0.0
  0
LINE
  5
190
330
1F
100
AcDbEntity
  8
0
100
AcDbLine
 10
-0.0871458535534875
 20
1.584201431842982
 30
0.0
 11
-0.1796136336651753
 21
1.580204596951223
 31
0.0
  0
LINE
  5
191
330
1F
100
AcDbEntity
  8
0
100
AcDbLine
 10
-0.1796136336651753
 20
1.580204596951223
 30
0.0
 11
-0.2717912605212393
 21
1.572133024394735
 31
0.0
  0
LINE
  5
192
330
1F
100
AcDbEntity
  8
0
100
AcDbLine
 10
-0.2717912605212393
 20
1.572133024394735
 30
0.0
 11
-0.3634655246945405
 21
1.559991905621452
 31
0.0
  0
LINE
  5
193
330
1F
100
AcDbEntity
  8
0
100
AcDbLine
 10
-0.3634655246945405
 20
1.559991905621452
 30
0.0
 11
-0.4544213845414284
 21
1.543789279258772
 31
0.0
  0
LINE
  5
194
330
1F
100
AcDbEntity
  8
0
100
AcDbLine
 10
-0.4544213845414284
 20
1.543789279258772
 30
0.0
 11
-0.5444412591114951
 21
1.523536304734782
 31
0.0
  0
LINE
  5
195
330
1F
100
AcDbEntity
  8
0
100
AcDbLine
 10
-0.5444412591114951
 20
1.523536304734782
 30
0.0
 11
-0.6333043480453482
 21
1.49924762888864
 31
0.0
  0
LINE
  5
196
330
1F
100
AcDbEntity
  8
0
100
AcDbLine
 10
-0.6333043480453482
 20
1.49924762888864
 30
0.0
 11
-0.7207859875014121
 21
1.470941846434614
 31
0.0
  0
LINE
  5
197
330
1F
100
AcDbEntity
  8
0
100
AcDbLine
 10
-0.7207859875014121
 20
1.470941846434614
 30
0.0
 11
-0.8066570519963032
 21
1.438642055167763
 31
0.0
  0
LINE
  5
198
330
1F
100
AcDbEntity
  8
0
100
AcDbLine
 10
-0.8066570519963032
 20
1.438642055167763
 30
0.0
 11
-0.8906834130592215
 21
1.402376506687303
 31
0.0
  0
LINE
  5
199
330
1F
100
AcDbEntity
  8
0
100
AcDbLine
 10
-0.8906834130592215
 20
1.402376506687303
 30
0.0
 11
-0.9726254667759818
 21
1.362179353134144
 31
0.0
  0
LINE
  5
19A
330
1F
100
AcDbEntity
  8
0
100
AcDbLine
 10
-0.9726254667759818
 20
1.362179353134144
 30
0.0
 11
-1.052237743614359
 21
1.318091489957095
 31
0.0
  0
LINE
  5
19B
330
1F
100
AcDbEntity
  8
0
100
AcDbLine
 10
-1.052237743614359
 20
1.318091489957095
 30
0.0
 11
-1.129268615354115
 21
1.270161494001127
 31
0.0
  0
LINE
  5
19C
330
1F
100
AcDbEntity
  8
0
100
AcDbLine
 10
-1.129268615354115
 20
1.270161494001127
 30
0.0
 11
-1.203460115458703
 21
1.218446655212092
 31
0.0
  0
LINE
  5
19D
330
1F
100
AcDbEntity
  8
0
100
AcDbLine
 10
-1.203460115458703
 20
1.218446655212092
 30
0.0
 11
-1.274547890777118
 21
1.163014098936036
 31
0.0
  0
LINE
  5
19E
330
1F
100
AcDbEntity
  8
0
100
AcDbLine
 10
-1.274547890777118
 20
1.163014098936036
 30
0.0
 11
-1.342261303997392
 21
1.103941994118307
 31
0.0
  0
LINE
  5
19F
330
1F
100
AcDbEntity
  8
0
100
AcDbLine
 10
-1.342261303997392
 20
1.103941994118307
 30
0.0
 11
-1.406323707717059
 21
1.041320840640751
 31
0.0
  0
LINE
  5
1A0
330
1F
100
AcDbEntity
  8
0
100
AcDbLine
 10
-1.406323707717059
 20
1.041320840640751
 30
0.0
 11
-1.466452912263937
 21
0.9752548265415621
 31
0.0
  0
LINE
  5
1A1
330
1F
100
AcDbEntity
  8
0
100
AcDbLine
 10
-1.466452912263937
 20
0.9752548265415621
 30
0.0
 11
-1.522361870388244
 21
0.9058632429163528
 31
0.0
  0
LINE
  5
1A2
330
1F
100
AcDbEntity
  8
0
100
AcDbLine
 10
-1.522361870388244
 20
0.9058632429163528
 30
0.0
 11
-1.573759602531258
 21
0.8332819408866474
 31
0.0
  0
LINE
  5
1A3
330
1F
100
AcDbEntity
  8
0
100
AcDbLine
 10
-1.573759602531258
 20
0.8332819408866474
 30
0.0
 11
-1.6203523864146
 21
0.7576648111451992
 31
0.0
  0
LINE
  5
1A4
330
1F
100
AcDbEntity
  8
0
100
AcDbLine
 10
-1.6203523864146
 20
0.7576648111451992
 30
0.0
 11
-1.661845234027775
 21
0.6791852622694302
 31
0.0
  0
LINE
  5
1A5
330
1F
100
AcDbEntity
  8
0
100
AcDbLine
 10
-1.661845234027775
 20
0.6791852622694302
 30
0.0
 11
-1.69794367754505
 21
0.5980376692855284
 31
0.0
  0
LINE
  5
1A6
330
1F
100
AcDbEntity
  8
0
100
AcDbLine
 10
-1.69794367754505
 20
0.5980376692855284
 30
0.0
 11
-1.728355883090517
 21
0.5144387589506434
 31
0.0
  0
LINE
  5
1A7
330
1F
100
AcDbEntity
  8
0
100
AcDbLine
 10
-1.728355883090517
 20
0.5144387589506434
 30
0.0
 11
-1.752795107403652
 21
0.4286288930237747
 31
0.0
  0
LINE
  5
1A8
330
1F
100
AcDbEntity
  8
0
100
AcDbLine
 10
-1.752795107403652
 20
0.4286288930237747
 30
0.0
 11
-1.77098250715495
 21
0.3408732055882194
 31
0.0
  0
LINE
  5
1A9
330
1F
100
AcDbEntity
  8
0
100
AcDbLine
 10
-1.77098250715495
 20
0.3408732055882194
 30
0.0
 11
-1.782650303760941
 21
0.2514625454917312
 31
0.0
  0
LINE
  5
1AA
330
1F
100
AcDbEntity
  8
0
100
AcDbLine
 10
-1.782650303760941
 20
0.2514625454917312
 30
0.0
 11
-1.78754529792526
 21
0.1607141704605216
 31
0.0
  0
LINE
  5
1AB
330
1F
100
AcDbEntity
  8
0
100
AcDbLine
 10
-1.78754529792526
 20
0.1607141704605216
 30
0.0
 11
-1.78543271772014
 21
0.068972135749063
 31
0.0
  0
LINE
  5
1AC
330
1F
100
AcDbEntity
  8
0
100
AcDbLine
 10
-1.78543271772014
 20
0.068972135749063
 30
0.0
 11
-1.776100371831981
 21
-0.0233926823128313
 31
0.0
  0
LINE
  5
1AD
330
1F
100
AcDbEntity
  8
0
100
AcDbLine
 10
-1.776100371831981
 20
-0.0233926823128313
 30
0.0
 11
-1.759363065740609
 21
-0.1159829884044814
 31
0.0
  0
LINE
  5
1AE
330
1F
100
AcDbEntity
  8
0
100
AcDbLine
 10
-1.759363065740609
 20
-0.1159829884044814
 30
0.0
 11
-1.735067223325818
 21
-0.2083759553009915
 31
0.0
  0
LINE
  5
1AF
330
1F
100
AcDbEntity
  8
0
100
AcDbLine
 10
-1.735067223325818
 20
-0.2083759553009915
 30
0.0
 11
-1.703095640086073
 21
-0.3001246516897831
 31
0.0
  0
LINE
  5
1B0
330
1F
100
AcDbEntity
  8
0
100
AcDbLine
 10
-1.703095640086073
 20
-0.3001246516897831
 30
0.0
 11
-1.663372277365085
 21
-0.3907600599146878
 31
0.0
  0
LINE
  5
1B1
330
1F
100
AcDbEntity
  8
0
100
AcDbLine
 10
-1.663372277365085
 20
-0.3907600599146878
 30
0.0
 11
-1.615866990433521
 21
-0.4797937230981933
 31
0.0
  0
LINE
  5
1B2
330
1F
100
AcDbEntity
  8
0
100
AcDbLine
 10
-1.615866990433521
 20
-0.4797937230981933
 30
0.0
 11
-1.5606000678493
 21
-0.5667210479149031
 31
0.0
  0
LINE
  5
1B3
330
1F
100
AcDbEntity
  8
0
100
AcDbLine
 10
-1.5606000678493
 20
-0.5667210479149031
 30
0.0
 11
-1.497646446243722
 21
-0.6510252726314264
 31
0.0
  0
LINE
  5
1B4
330
1F
100
AcDbEntity
  8
0
100
AcDbLine
 10
-1.497646446243722
 20
-0.6510252726314264
 30
0.0
 11
-1.427139454672793
 21
-0.7321820900487778
 31
0.0
  0
LINE
  5
1B5
330
1F
100
AcDbEntity
  8
0
100
AcDbLine
 10
-1.427139454672793
 20
-0.7321820900487778
 30
0.0
 11
-1.349273937088987
 21
-0.8096648920899974
 31
0.0
  0
LINE
  5
1B6
330
1F
100
AcDbEntity
  8
0
100
AcDbLine
 10
-1.349273937088987
 20
-0.8096648920899974
 30
0.0
 11
-1.264308601437045
 21
-0.8829505776493258
 31
0.0
  0
LINE
  5
1B7
330
1F
100
AcDbEntity
  8
0
100
AcDbLine
 10
-1.264308601437045
 20
-0.8829505776493258
 30
0.0
 11
-1.172567450322093
 21
-0.9515258389226781
 31
0.0
  0
LINE
  5
1B8
330
1F
100
AcDbEntity
  8
0
100
AcDbLine
 10
-1.172567450322093
 20
-0.9515258389226781
 30
0.0
 11
-1.074440161850995
 21
-1.014893814999111
 31
0.0
  0
LINE
  5
1B9
330
1F
100
AcDbEntity
  8
0
100
AcDbLine
 10
-1.074440161850995
 20
-1.014893814999111
 30
0.0
 11
-0.9703813104608304
 21
-1.072580976453689
 31
0.0
  0
LINE
  5
1BA
330
1F
100
AcDbEntity
  8
0
100
AcDbLine
 10
-0.9703813104608304
 20
-1.072580976453689
 30
0.0
 11
-0.860908346219285
 21
-1.124144082628131
 31
0.0
  0
LINE
  5
1BB
330
1F
100
AcDbEntity
  8
0
100
AcDbLine
 10
-0.860908346219285
 20
-1.124144082628131
 30
0.0
 11
-0.7465982865845375
 21
-1.169177035836028
 31
0.0
  0
LINE
  5
1BC
330
1F
100
AcDbEntity
  8
0
100
AcDbLine
 10
-0.7465982865845375
 20
-1.169177035836028
 30
0.0
 11
-0.6280831157654962
 21
-1.20731744541031
 31
0.0
  0
LINE
  5
1BD
330
1F
100
AcDbEntity
  8
0
100
AcDbLine
 10
-0.6280831157654962
 20
-1.20731744541031
 30
0.0
 11
-0.5060439319091286
 21
-1.23825271061506
 31
0.0
  0
LINE
  5
1BE
330
1F
100
AcDbEntity
  8
0
100
AcDbLine
 10
-0.5060439319091286
 20
-1.23825271061506
 30
0.0
 11
-0.3812039291790184
 21
-1.26172543589457
 31
0.0
  0
LINE
  5
1BF
330
1F
100
AcDbEntity
  8
0
100
AcDbLine
 10
-0.3812039291790184
 20
-1.26172543589457
 30
0.0
 11
-0.254320347863001
 21
-1.277538005163327
 31
0.0
  0
LINE
  5
1C0
330
1F
100
AcDbEntity
  8
0
100
AcDbLine
 10
-0.254320347863001
 20
-1.277538005163327
 30
0.0
 11
-0.1261755682850647
 21
-1.285556163710951
 31
0.0
  0
LINE
  5
1C1
330
1F
100
AcDbEntity
  8
0
100
AcDbLine
 10
-0.1261755682850647
 20
-1.285556163710951
 30
0.0
 11
0.0024324391226676
 21
-1.285711486055598
 31
0.0
  0
LINE
  5
1C2
330
1F
100
AcDbEntity
  8
0
100
AcDbLine
 10
0.0024324391226676
 20
-1.285711486055598
 30
0.0
 11
0.1307000670544632
 21
-1.278002644388037
 31
0.0
  0
LINE
  5
1C3
330
1F
100
AcDbEntity
  8
0
100
AcDbLine
 10
0.1307000670544632
 20
-1.278002644388037
 30
0.0
 11
0.257828169426619
 21
-1.262495433257019
 31
0.0
  0
LINE
  5
1C4
330
1F
100
AcDbEntity
  8
0
100
AcDbLine
 10
0.257828169426619
 20
-1.262495433257019
 30
0.0
 11
0.3830320394489838
 21
-1.239321549629676
 31
0.0
  0
LINE
  5
1C5
330
1F
100
AcDbEntity
  8
0
100
AcDbLine
 10
0.3830320394489838
 20
-1.239321549629676
 30
0.0
 11
0.5055510082554113
 21
-1.208676170992335
 31
0.0
  0
LINE
  5
1C6
330
1F
100
AcDbEntity
  8
0
100
AcDbLine
 10
0.5055510082554113
 20
-1.208676170992335
 30
0.0
 11
0.6246574216765411
 21
-1.170814415307298
 31
0.0
  0
LINE
  5
1C7
330
1F
100
AcDbEntity
  8
0
100
AcDbLine
 10
0.6246574216765411
 20
-1.170814415307298
 30
0.0
 11
0.7396647801188195
 21
-1.126046803173164
 31
0.0
  0
LINE
  5
1C8
330
1F
100
AcDbEntity
  8
0
100
AcDbLine
 10
0.7396647801188195
 20
-1.126046803173164
 30
0.0
 11
0.849934862456314
 21
-1.074733872583227
 31
0.0
  0
LINE
  5
1C9
330
1F
100
AcDbEntity
  8
0
100
AcDbLine
 10
0.849934862456314
 20
-1.074733872583227
 30
0.0
 11
0.9548836970314438
 21
-1.017280118876251
 31
0.0
  0
LINE
  5
1CA
330
1F
100
AcDbEntity
  8
0
100
AcDbLine
 10
0.9548836970314438
 20
-1.017280118876251
 30
0.0
 11
1.053986288692454
 21
-0.954127446052141
 31
0.0
  0
LINE
  5
1CB
330
1F
100
AcDbEntity
  8
0
100
AcDbLine
 10
1.053986288692454
 20
-0.954127446052141
 30
0.0
 11
1.14678005759646
 21
-0.885748320417529
 31
0.0
  0
LINE
  5
1CC
330
1F
100
AcDbEntity
  8
0
100
AcDbLine
 10
1.14678005759646
 20
-0.885748320417529
 30
0.0
 11
1.232866990747407
 21
-0.81263881394534
 31
0.0
  0
LINE
  5
1CD
330
1F
100
AcDbEntity
  8
0
100
AcDbLine
 10
1.232866990747407
 20
-0.81263881394534
 30
0.0
 11
1.311914548710712
 21
-0.7353117136836356
 31
0.0
  0
LINE
  5
1CE
330
1F
100
AcDbEntity
  8
0
100
AcDbLine
 10
1.311914548710712
 20
-0.7353117136836356
 30
0.0
 11
1.383655405897905
 21
-0.6542898563134463
 31
0.0
  0
LINE
  5
1CF
330
1F
100
AcDbEntity
  8
0
100
AcDbLine
 10
1.383655405897905
 20
-0.6542898563134463
 30
0.0
 11
1.447886132024485
 21
-0.5700998250524119
 31
0.0
  0
LINE
  5
1D0
330
1F
100
AcDbEntity
  8
0
100
AcDbLine
 10
1.447886132024485
 20
-0.5700998250524119
 30
0.0
 11
1.504464944145865
 21
-0.4832661211488964
 31
0.0
  0
LINE
  5
1D1
330
1F
100
AcDbEntity
  8
0
100
AcDbLine
 10
1.504464944145865
 20
-0.4832661211488964
 30
0.0
 11
1.553308672929466
 21
-0.394305895797896
 31
0.0
  0
LINE
  5
1D2
330
1F
100
AcDbEntity
  8
0
100
AcDbLine
 10
1.553308672929466
 20
-0.394305895797896
 30
0.0
 11
1.594389093844988
 21
-0.303724301886876
 31
0.0
  0
LINE
  5
1D3
330
1F
100
AcDbEntity
  8
0
100
AcDbLine
 10
1.594389093844988
 20
-0.303724301886876
 30
0.0
 11
1.62772877443469
 21
-0.2120104997831397
 31
0.0
  0
LINE
  5
1D4
330
1F
100
AcDbEntity
  8
0
100
AcDbLine
 10
1.62772877443469
 20
-0.2120104997831397
 30
0.0
 11
1.653396583705941
 21
-0.1196343283780973
 31
0.0
  0
LINE
  5
1D5
330
1F
100
AcDbEntity
  8
0
100
AcDbLine
 10
1.653396583705941
 20
-0.1196343283780973
 30
0.0
 11
1.671503000066097
 21
-0.0270436325002733
 31
0.0
  0
LINE
  5
1D6
330
1F
100
AcDbEntity
  8
0
100
AcDbLine
 10
1.671503000066097
 20
-0.0270436325002733
 30
0.0
 11
1.682195341245617
 21
0.0653377789845141
 31
0.0
  0
LINE
  5
1D7
330
1F
100
AcDbEntity
  8
0
100
AcDbLine
 10
1.682195341245617
 20
0.0653377789845141
 30
0.0
 11
1.685653024450352
 21
0.1571115833824705
 31
0.0
  0
LINE
  5
1D8
330
1F
100
AcDbEntity
  8
0
100
AcDbLine
 10
1.685653024450352
 20
0.1571115833824705
 30
0.0
 11
1.682082948576716
 21
0.2479058515666122
 31
0.0
  0
ENDSEC
  0
SECTION
  2
OBJECTS
  0
DICTIONARY
  5
C
330
0
100
AcDbDictionary
  3
ACAD_GROUP
350
D
  3
ACAD_LAYOUT
350
1A
  3
ACAD_MLEADERSTYLE
350
1FA
  3
ACAD_MLINESTYLE
350
17
  3
ACAD_PLOTSETTINGS
350
19
  3
ACAD_TABLESTYLE
350
1F9
  3
ACAD_VISUALSTYLE
350
2A
  3
ACDBHEADERROUNDTRIPXREC
350
1D9
  0
DICTIONARY
  5
D
102
{ACAD_REACTORS
330
C
102
}
330
C
100
AcDbDictionary
  0
DICTIONARY
  5
1A
102
{ACAD_REACTORS
330
C
102
}
330
C
100
AcDbDictionary
  0
DICTIONARY
  5
1FA
102
{ACAD_REACTORS
330
C
102
}
330
C
100
AcDbDictionary
  0
DICTIONARY
  5
17
102
{ACAD_REACTORS
330
C
102
}
330
C
100
AcDbDictionary
  3
STANDARD
350
18
  0
DICTIONARY
  5
19
102
{ACAD_REACTORS
330
C
102
}
330
C
100
AcDbDictionary
  0
DICTIONARY
  5
1F9
102
{ACAD_REACTORS
330
C
102
}
330
C
100
AcDbDictionary
  0
DICTIONARY
  5
2A
102
{ACAD_REACTORS
330
C
102
}
330
C
100
AcDbDictionary
  3
2DWIREFRAME
350
2F
  3
3D_HIDDEN
350
31
  3
3DWIREFRAME
350
30
  3
BASIC
350
32
  3
BRIGHTEN
350
36
  3
COLORCHANGE
350
3A
  3
CONCEPTUAL
350
34
  3
DIM
350
35
  3
FACEPATTERN
350
39
  3
FLAT
350
2B
  3
FLATWITHEDGES
350
2C
  3
GOURAUD
350
2D
  3
GOURAUDWITHEDGES
350
2E
  3
LINEPATTERN
350
38
  3
REALISTIC
350
33
  3
THICKEN
350
37
  0
DICTIONARY
  5
1D9
102
{ACAD_REACTORS
330
C
102
}
330
C
100
AcDbDictionary
  3
CEPSNTYPE
350
1E2
  3
DIMSTYLEDATA
350
1F8
  3
FINGERPRINTGUID
350
1E3
  3
HYPERLINKBASE
350
1DC
  3
INSUNITS
350
1E1
  3
LAYOUTDICT
350
1DE
  3
LWETCUNION
350
1E0
  3
PLOTSETDICT
350
1DF
  3
PSVPSCALE
350
1E5
  3
PUCSBASE
350
1E8
  3
PUCSORGBACK
350
1EE
  3
PUCSORGBOTTOM
350
1EA
  3
PUCSORGFRONT
350
1ED
  3
PUCSORGLEFT
350
1EB
  3
PUCSORGRIGHT
350
1EC
  3
PUCSORGTOP
350
1E9
  3
PUCSORTHOREF
350
1E6
  3
PUCSORTHOVIEW
350
1E7
  3
STYLESHEET
350
1DD
  3
TSTACKALIGN
350
1DA
  3
TSTACKSIZE
350
1DB
  3
UCSBASE
350
1F1
  3
UCSORGBACK
350
1F7
  3
UCSORGBOTTOM
350
1F3
  3
UCSORGFRONT
350
1F6
  3
UCSORGLEFT
350
1F4
  3
UCSORGRIGHT
350
1F5
  3
UCSORGTOP
350
1F2
  3
UCSORTHOREF
350
1EF
  3
UCSORTHOVIEW
350
1F0
  3
VERSIONGUID
350
1E4
  0
MLINESTYLE
  5
18
102
{ACAD_REACTORS
330
17
102
}
330
17
100
AcDbMlineStyle
  2
Standard
 70
     0
  3

 62
   256
 51
90.0
 52
90.0
 71
     2
 49
0.5
 62
   256
  6
BYLAYER
 49
-0.5
 62
   256
  6
BYLAYER
  0
VISUALSTYLE
  5
2F
102
{ACAD_REACTORS
330
2A
102
}
330
2A
100
AcDbVisualStyle
  2
2dWireframe
 70
     4
 71
     0
 72
     2
 73
     0
 90
        0
 40
-0.6
 41
-30.0
 62
     5
 63
     7
 74
     1
 91
        4
 64
     7
 65
   257
 75
     1
175
     1
 42
1.0
 92
        0
 66
   257
 43
1.0
 76
     1
 77
     6
 78
     2
 67
     7
 79
     5
170
     0
171
     0
290
     0
174
     0
 93
        1
 44
0.0
173
     0
291
     0
 45
0.0
1001
ACAD
1000
AcDbSavedByObjectVersion
1070
     0
  0
VISUALSTYLE
  5
31
102
{ACAD_REACTORS
330
2A
102
}
330
2A
100
AcDbVisualStyle
  2
3D Hidden
 70
     6
 71
     1
 72
     2
 73
     2
 90
        0
 40
-0.6
 41
-30.0
 62
     5
 63
     7
 74
     2
 91
        2
 64
     7
 65
   257
 75
     2
175
     1
 42
40.0
 92
        0
 66
   257
 43
1.0
 76
     1
 77
     6
 78
     2
 67
     7
 79
     3
170
     0
171
     0
290
     0
174
     0
 93
        1
 44
0.0
173
     0
291
     0
 45
0.0
1001
ACAD
1000
AcDbSavedByObjectVersion
1070
     0
  0
VISUALSTYLE
  5
30
102
{ACAD_REACTORS
330
2A
102
}
330
2A
100
AcDbVisualStyle
  2
3dWireframe
 70
     5
 71
     0
 72
     2
 73
     0
 90
        0
 40
-0.6
 41
-30.0
 62
     5
 63
     7
 74
     1
 91
        4
 64
     7
 65
   257
 75
     1
175
     1
 42
1.0
 92
        0
 66
   257
 43
1.0
 76
     1
 77
     6
 78
     2
 67
     7
 79
     5
170
     0
171
     0
290
     0
174
     0
 93
        1
 44
0.0
173
     0
291
     0
 45
0.0
1001
ACAD
1000
AcDbSavedByObjectVersion
1070
     0
  0
VISUALSTYLE
  5
32
102
{ACAD_REACTORS
330
2A
102
}
330
2A
100
AcDbVisualStyle
  2
Basic
 70
     7
 71
     1
 72
     0
 73
     1
 90
        0
 40
-0.6
 41
-30.0
 62
     5
 63
     7
 74
     0
 91
        4
 64
     7
 65
   257
 75
     1
175
     1
 42
1.0
 92
        8
 66
     7
 43
1.0
 76
     1
 77
     6
 78
     2
 67
     7
 79
     5
170
     0
171
     0
290
     0
174
     0
 93
        1
 44
0.0
173
     0
291
     1
 45
0.0
1001
ACAD
1000
AcDbSavedByObjectVersion
1070
     0
  0
VISUALSTYLE
  5
36
102
{ACAD_REACTORS
330
2A
102
}
330
2A
100
AcDbVisualStyle
  2
Brighten
 70
    12
 71
     2
 72
     2
 73
     0
 90
        0
 40
-0.6
 41
-30.0
 62
     5
 63
     7
 74
     1
 91
        4
 64
     7
 65
   257
 75
     1
175
     1
 42
1.0
 92
        8
 66
     7
 43
1.0
 76
     1
 77
     6
 78
     2
 67
     7
 79
     5
170
     0
171
     0
290
     0
174
     0
 93
        1
 44
50.0
173
     0
291
     1
 45
0.0
1001
ACAD
1000
AcDbSavedByObjectVersion
1070
     0
  0
VISUALSTYLE
  5
3A
102
{ACAD_REACTORS
330
2A
102
}
330
2A
100
AcDbVisualStyle
  2
ColorChange
 70
    16
 71
     2
 72
     2
 73
     3
 90
        0
 40
-0.6
 41
-30.0
 62
     5
 63
     8
 74
     1
 91
        4
 64
     7
 65
   257
 75
     1
175
     1
 42
1.0
 92
        8
 66
     8
 43
1.0
 76
     1
 77
     6
 78
     2
 67
     7
 79
     5
170
     0
171
     0
290
     0
174
     0
 93
        1
 44
0.0
173
     0
291
     1
 45
0.0
1001
ACAD
1000
AcDbSavedByObjectVersion
1070
     0
  0
VISUALSTYLE
  5
34
102
{ACAD_REACTORS
330
2A
102
}
330
2A
100
AcDbVisualStyle
  2
Conceptual
 70
     9
 71
     3
 72
     2
 73
     0
 90
        0
 40
-0.6
 41
-30.0
 62
     5
 63
     7
 74
     2
 91
        2
 64
     7
 65
   257
 75
     1
175
     1
 42
40.0
 92
        8
 66
     7
 43
1.0
 76
     1
 77
     6
 78
     2
 67
     7
 79
     3
170
     0
171
     0
290
     0
174
     0
 93
        1
 44
0.0
173
     0
291
     0
 45
0.0
1001
ACAD
1000
AcDbSavedByObjectVersion
1070
     0
  0
VISUALSTYLE
  5
35
102
{ACAD_REACTORS
330
2A
102
}
330
2A
100
AcDbVisualStyle
  2
Dim
 70
    11
 71
     2
 72
     2
 73
     0
 90
        0
 40
-0.6
 41
-30.0
 62
     5
 63
     7
 74
     1
 91
        4
 64
     7
 65
   257
 75
     1
175
     1
 42
1.0
 92
        8
 66
     7
 43
1.0
 76
     1
 77
     6
 78
     2
 67
     7
 79
     5
170
     0
171
     0
290
     0
174
     0
 93
        1
 44
-50.0
173
     0
291
     1
 45
0.0
1001
ACAD
1000
AcDbSavedByObjectVersion
1070
     0
  0
VISUALSTYLE
  5
39
102
{ACAD_REACTORS
330
2A
102
}
330
2A
100
AcDbVisualStyle
  2
Facepattern
 70
    15
 71
     2
 72
     2
 73
     0
 90
        0
 40
-0.6
 41
-30.0
 62
     5
 63
     7
 74
     1
 91
        4
 64
     7
 65
   257
 75
     1
175
     1
 42
1.0
 92
        8
 66
     7
 43
1.0
 76
     1
 77
     6
 78
     2
 67
     7
 79
     5
170
     0
171
     0
290
     0
174
     0
 93
        1
 44
0.0
173
     0
291
     1
 45
0.0
1001
ACAD
1000
AcDbSavedByObjectVersion
1070
     0
  0
VISUALSTYLE
  5
2B
102
{ACAD_REACTORS
330
2A
102
}
330
2A
100
AcDbVisualStyle
  2
Flat
 70
     0
 71
     2
 72
     1
 73
     1
 90
        2
 40
-0.6
 41
30.0
 62
     5
 63
     7
 74
     0
 91
        4
 64
     7
 65
   257
 75
     1
175
     1
 42
1.0
 92
        8
 66
     7
 43
1.0
 76
     1
 77
     6
 78
     2
 67
     7
 79
     5
170
     0
171
     0
290
     0
174
     0
 93
       13
 44
0.0
173
     0
291
     1
 45
0.0
1001
ACAD
1000
AcDbSavedByObjectVersion
1070
     0
  0
VISUALSTYLE
  5
2C
102
{ACAD_REACTORS
330
2A
102
}
330
2A
100
AcDbVisualStyle
  2
FlatWithEdges
 70
     1
 71
     2
 72
     1
 73
     1
 90
        2
 40
-0.6
 41
30.0
 62
     5
 63
     7
 74
     1
 91
        4
 64
     7
 65
   257
 75
     1
175
     1
 42
1.0
 92
        0
 66
   257
 43
1.0
 76
     1
 77
     6
 78
     2
 67
     7
 79
     5
170
     0
171
     0
290
     0
174
     0
 93
       13
 44
0.0
173
     0
291
     1
 45
0.0
1001
ACAD
1000
AcDbSavedByObjectVersion
1070
     0
  0
VISUALSTYLE
  5
2D
102
{ACAD_REACTORS
330
2A
102
}
330
2A
100
AcDbVisualStyle
  2
Gouraud
 70
     2
 71
     2
 72
     2
 73
     1
 90
        2
 40
-0.6
 41
30.0
 62
     5
 63
     7
 74
     0
 91
        4
 64
     7
 65
   257
 75
     1
175
     1
 42
1.0
 92
        0
 66
     7
 43
1.0
 76
     1
 77
     6
 78
     2
 67
     7
 79
     5
170
     0
171
     0
290
     0
174
     0
 93
       13
 44
0.0
173
     0
291
     1
 45
0.0
1001
ACAD
1000
AcDbSavedByObjectVersion
1070
     0
  0
VISUALSTYLE
  5
2E
102
{ACAD_REACTORS
330
2A
102
}
330
2A
100
AcDbVisualStyle
  2
GouraudWithEdges
 70
     3
 71
     2
 72
     2
 73
     1
 90
        2
 40
-0.6
 41
30.0
 62
     5
 63
     7
 74
     1
 91
        4
 64
     7
 65
   257
 75
     1
175
     1
 42
1.0
 92
        0
 66
   257
 43
1.0
 76
     1
 77
     6
 78
     2
 67
     7
 79
     5
170
     0
171
     0
290
     0
174
     0
 93
       13
 44
0.0
173
     0
291
     1
 45
0.0
1001
ACAD
1000
AcDbSavedByObjectVersion
1070
     0
  0
VISUALSTYLE
  5
38
102
{ACAD_REACTORS
330
2A
102
}
330
2A
100
AcDbVisualStyle
  2
Linepattern
 70
    14
 71
     2
 72
     2
 73
     0
 90
        0
 40
-0.6
 41
-30.0
 62
     5
 63
     7
 74
     1
 91
        4
 64
     7
 65
   257
 75
     7
175
     7
 42
1.0
 92
        8
 66
     7
 43
1.0
 76
     1
 77
     6
 78
     2
 67
     7
 79
     5
170
     0
171
     0
290
     0
174
     0
 93
        1
 44
0.0
173
     0
291
     1
 45
0.0
1001
ACAD
1000
AcDbSavedByObjectVersion
1070
     0
  0
VISUALSTYLE
  5
33
102
{ACAD_REACTORS
330
2A
102
}
330
2A
100
AcDbVisualStyle
  2
Realistic
 70
     8
 71
     2
 72
     2
 73
     0
 90
        0
 40
-0.6
 41
-30.0
 62
     5
 63
     7
 74
     1
 91
        0
 64
     7
 65
   257
 75
     1
175
     1
 42
1.0
 92
        8
 66
     8
 43
1.0
 76
     1
 77
     6
 78
     2
 67
     7
 79
     5
170
     0
171
     0
290
     0
174
     0
 93
       13
 44
0.0
173
     0
291
     0
 45
0.0
1001
ACAD
1000
AcDbSavedByObjectVersion
1070
     0
  0
VISUALSTYLE
  5
37
102
{ACAD_REACTORS
330
2A
102
}
330
2A
100
AcDbVisualStyle
  2
Thicken
 70
    13
 71
     2
 72
     2
 73
     0
 90
        0
 40
-0.6
 41
-30.0
 62
     5
 63
     7
 74
     1
 91
        4
 64
     7
 65
   257
 75
     1
175
     1
 42
1.0
 92
       12
 66
     7
 43
1.0
 76
     1
 77
     6
 78
     2
 67
     7
 79
     5
170
     0
171
     0
290
     0
174
     0
 93
        1
 44
0.0
173
     0
291
     1
 45
0.0
1001
ACAD
1000
AcDbSavedByObjectVersion
1070
     0
  0
XRECORD
  5
1E2
102
{ACAD_REACTORS
330
1D9
102
}
330
1D9
100
AcDbXrecord
 90
        0
  0
XRECORD
  5
1F8
102
{ACAD_REACTORS
330
1D9
102
}
330
1D9
100
AcDbXrecord
1000
DSTYLE
1002
{
1070
   340
340
11
1002
}
  0
XRECORD
  5
1E3
102
{ACAD_REACTORS
330
1D9
102
}
330
1D9
100
AcDbXrecord
  1
{0732BE35-2D3B-4B1E-85B8-7BB1354067F0}
  0
XRECORD
  5
1DC
102
{ACAD_REACTORS
330
1D9
102
}
330
1D9
100
AcDbXrecord
  1

  0
XRECORD
  5
1E1
102
{ACAD_REACTORS
330
1D9
102
}
330
1D9
100
AcDbXrecord
 90
        1
  0
XRECORD
  5
1DE
102
{ACAD_REACTORS
330
1D9
102
}
330
1D9
100
AcDbXrecord
340
1A
  0
XRECORD
  5
1E0
102
{ACAD_REACTORS
330
1D9
102
}
330
1D9
100
AcDbXrecord
 90
    10781
  0
XRECORD
  5
1DF
102
{ACAD_REACTORS
330
1D9
102
}
330
1D9
100
AcDbXrecord
340
19
  0
XRECORD
  5
1E5
102
{ACAD_REACTORS
330
1D9
102
}
330
1D9
100
AcDbXrecord
 40
0.0
  0
XRECORD
  5
1E8
102
{ACAD_REACTORS
330
1D9
102
}
330
1D9
100
AcDbXrecord
340
0
  0
XRECORD
  5
1EE
102
{ACAD_REACTORS
330
1D9
102
}
330
1D9
100
AcDbXrecord
 10
0.0
 20
0.0
 30
0.0
  0
XRECORD
  5
1EA
102
{ACAD_REACTORS
330
1D9
102
}
330
1D9
100
AcDbXrecord
 10
0.0
 20
0.0
 30
0.0
  0
XRECORD
  5
1ED
102
{ACAD_REACTORS
330
1D9
102
}
330
1D9
100
AcDbXrecord
 10
0.0
 20
0.0
 30
0.0
  0
XRECORD
  5
1EB
102
{ACAD_REACTORS
330
1D9
102
}
330
1D9
100
AcDbXrecord
 10
0.0
 20
0.0
 30
0.0
  0
XRECORD
  5
1EC
102
{ACAD_REACTORS
330
1D9
102
}
330
1D9
100
AcDbXrecord
 10
0.0
 20
0.0
 30
0.0
  0
XRECORD
  5
1E9
102
{ACAD_REACTORS
330
1D9
102
}
330
1D9
100
AcDbXrecord
 10
0.0
 20
0.0
 30
0.0
  0
XRECORD
  5
1E6
102
{ACAD_REACTORS
330
1D9
102
}
330
1D9
100
AcDbXrecord
340
0
  0
XRECORD
  5
1E7
102
{ACAD_REACTORS
330
1D9
102
}
330
1D9
100
AcDbXrecord
 70
     0
  0
XRECORD
  5
1DD
102
{ACAD_REACTORS
330
1D9
102
}
330
1D9
100
AcDbXrecord
  1

  0
XRECORD
  5
1DA
102
{ACAD_REACTORS
330
1D9
102
}
330
1D9
100
AcDbXrecord
 90
        1
  0
XRECORD
  5
1DB
102
{ACAD_REACTORS
330
1D9
102
}
330
1D9
100
AcDbXrecord
 90
       70
  0
XRECORD
  5
1F1
102
{ACAD_REACTORS
330
1D9
102
}
330
1D9
100
AcDbXrecord
340
0
  0
XRECORD
  5
1F7
102
{ACAD_REACTORS
330
1D9
102
}
330
1D9
100
AcDbXrecord
 10
0.0
 20
0.0
 30
0.0
  0
XRECORD
  5
1F3
102
{ACAD_REACTORS
330
1D9
102
}
330
1D9
100
AcDbXrecord
 10
0.0
 20
0.0
 30
0.0
  0
XRECORD
  5
1F6
102
{ACAD_REACTORS
330
1D9
102
}
330
1D9
100
AcDbXrecord
 10
0.0
 20
0.0
 30
0.0
  0
XRECORD
  5
1F4
102
{ACAD_REACTORS
330
1D9
102
}
330
1D9
100
AcDbXrecord
 10
0.0
 20
0.0
 30
0.0
  0
XRECORD
  5
1F5
102
{ACAD_REACTORS
330
1D9
102
}
330
1D9
100
AcDbXrecord
 10
0.0
 20
0.0
 30
0.0
  0
XRECORD
  5
1F2
102
{ACAD_REACTORS
330
1D9
102
}
330
1D9
100
AcDbXrecord
 10
0.0
 20
0.0
 30
0.0
  0
XRECORD
  5
1EF
102
{ACAD_REACTORS
330
1D9
102
}
330
1D9
100
AcDbXrecord
340
0
  0
XRECORD
  5
1F0
102
{ACAD_REACTORS
330
1D9
102
}
330
1D9
100
AcDbXrecord
 70
     0
  0
XRECORD
  5
1E4
102
{ACAD_REACTORS
330
1D9
102
}
330
1D9
100
AcDbXrecord
  1
{FAEB1C32-E019-11D5-929B-00C0DF256EC4}
  0
ENDSEC
  0
EOF
